<?xml version="1.0" encoding="UTF-8" standalone="no"?>
<!-- Generator: Adobe Illustrator 16.0.0, SVG Export Plug-In . SVG Version: 6.00 Build 0)  -->

<svg
   version="1.1"
   id="svg2"
   inkscape:output_extension="org.inkscape.output.svg.inkscape"
   inkscape:export-filename="D:\Wikip√©dia\Atelier graphique\Cartes\France g√©oloc\Terres noir.png"
   inkscape:export-ydpi="90"
   inkscape:export-xdpi="90"
   sodipodi:version="0.32"
   inkscape:version="1.3 (0e150ed6c4, 2023-07-21)"
   sodipodi:docname="France_location_map-Regions_and_departements-2016.svg"
   x="0px"
   y="0px"
   width="2000px"
   height="1922.037px"
   viewBox="0 0 2000 1922.037"
   enable-background="new 0 0 2000 1922.037"
   xml:space="preserve"
   xmlns:inkscape="http://www.inkscape.org/namespaces/inkscape"
   xmlns:sodipodi="http://sodipodi.sourceforge.net/DTD/sodipodi-0.dtd"
   xmlns="http://www.w3.org/2000/svg"
   xmlns:svg="http://www.w3.org/2000/svg"
   xmlns:rdf="http://www.w3.org/1999/02/22-rdf-syntax-ns#"
   xmlns:cc="http://creativecommons.org/ns#"
   xmlns:dc="http://purl.org/dc/elements/1.1/"><metadata
     id="metadata241"><rdf:RDF><cc:Work
         rdf:about=""><dc:format>image/svg+xml</dc:format><dc:type
           rdf:resource="http://purl.org/dc/dcmitype/StillImage" /></cc:Work></rdf:RDF></metadata><defs
     id="defs3"><inkscape:perspective
       inkscape:persp3d-origin="1000 : 640.67912 : 1"
       sodipodi:type="inkscape:persp3d"
       inkscape:vp_x="0 : 961.01868 : 1"
       inkscape:vp_y="0 : 1000 : 0"
       inkscape:vp_z="2000 : 961.01868 : 1"
       id="perspective208" /><inkscape:perspective
       inkscape:persp3d-origin="1000 : 640.67912 : 1"
       sodipodi:type="inkscape:persp3d"
       inkscape:vp_x="0 : 961.01868 : 1"
       inkscape:vp_y="0 : 1000 : 0"
       inkscape:vp_z="2000 : 961.01868 : 1"
       id="perspective3034" /><inkscape:perspective
       inkscape:persp3d-origin="1000 : 640.67912 : 1"
       sodipodi:type="inkscape:persp3d"
       inkscape:vp_x="0 : 961.01868 : 1"
       inkscape:vp_y="0 : 1000 : 0"
       inkscape:vp_z="2000 : 961.01868 : 1"
       id="perspective319" /><inkscape:perspective
       inkscape:persp3d-origin="1000 : 640.67912 : 1"
       sodipodi:type="inkscape:persp3d"
       inkscape:vp_x="0 : 961.01868 : 1"
       inkscape:vp_y="0 : 1000 : 0"
       inkscape:vp_z="2000 : 961.01868 : 1"
       id="perspective2786" /><inkscape:perspective
       inkscape:persp3d-origin="1000 : 640.67912 : 1"
       sodipodi:type="inkscape:persp3d"
       inkscape:vp_x="0 : 961.01868 : 1"
       inkscape:vp_y="0 : 1000 : 0"
       inkscape:vp_z="2000 : 961.01868 : 1"
       id="perspective2684" /><inkscape:perspective
       inkscape:persp3d-origin="1000 : 640.67912 : 1"
       sodipodi:type="inkscape:persp3d"
       inkscape:vp_x="0 : 961.01868 : 1"
       inkscape:vp_y="0 : 1000 : 0"
       inkscape:vp_z="2000 : 961.01868 : 1"
       id="perspective229" /></defs><sodipodi:namedview
     inkscape:pageopacity="0.0"
     inkscape:pageshadow="2"
     inkscape:document-units="px"
     inkscape:current-layer="layer5"
     inkscape:window-width="1280"
     inkscape:window-height="730"
     inkscape:window-x="-6"
     inkscape:window-y="-6"
     inkscape:window-maximized="1"
     pagecolor="#ffffff"
     bordercolor="#666666"
     borderopacity="1.0"
     inkscape:zoom="0.9500457"
     inkscape:cx="672.59923"
     inkscape:cy="1834.6486"
     showgrid="false"
     borderlayer="true"
     id="base"
     inkscape:showpageshadow="2"
     inkscape:pagecheckerboard="0"
     inkscape:deskcolor="#d1d1d1" /><g
     id="layer5"
     transform="translate(-6.2490173e-2,5.4199219e-2)"
     inkscape:groupmode="layer"
     inkscape:label="Fond"><rect
       id="rect2449"
       x="0.062"
       y="-0.054"
       fill="#C6ECFF"
       width="2000"
       height="1922.037" /></g><g
     id="layer12"
     inkscape:groupmode="layer"
     inkscape:label="France"><path
       id="path5769"
       fill="#FEFEE4"
       stroke="#0978AB"
       stroke-width="0.7"
       stroke-linecap="round"
       d="M1547.957,1550.747   c1.197-2.333,4.309-2.648,4.901-5.424c1.354-0.941,3.357-3.318,5.014-1.718c-1.156,1.22-3.144,2.287-3.613,4.454   c-0.68,2.044-2.053,2.998-3.702,3.062C1549.592,1552.036,1548.248,1552.592,1547.957,1550.747z" /><path
       id="path5771"
       fill="#FEFEE4"
       stroke="#0978AB"
       stroke-width="0.7"
       stroke-linecap="round"
       d="M1541.533,1553.324   c-1.485-1.723,3.52-3.771,3.305-1.234C1544.168,1552.846,1542.459,1554.396,1541.533,1553.324z" /><path
       id="path5773"
       fill="#FEFEE4"
       stroke="#0978AB"
       stroke-width="0.7"
       stroke-linecap="round"
       d="M1515.874,1553.646   c1.147-1.965,3.711-0.009,5.124-1.986c0.484-1.326,3.339-4.355,3.146-1.156c0.402,3.039-2.798,6.203-5.627,6.039   C1518.732,1553.789,1513.883,1556.775,1515.874,1553.646z" /><path
       id="path5775"
       fill="#FEFEE4"
       stroke="#0978AB"
       stroke-width="0.7"
       stroke-linecap="round"
       d="M1345.282,1491.034   c1.166-2.01,4.062,0.43,5.859,0.54c0.329,1.298-3.986,0.07-5.413,0.157C1345.652,1491.464,1345.166,1491.395,1345.282,1491.034z" /><path
       id="path5777"
       fill="#FEFEE4"
       stroke="#0978AB"
       stroke-width="0.7"
       stroke-linecap="round"
       d="M1124.376,1590.055   c-1.289-2.587-0.574-5.949-0.167-8.656c1.82-3.331,1.793,1.201,1.578,2.804c-0.341,2.531,0.984,5.096-0.148,7.519   C1125.049,1591.319,1124.794,1590.611,1124.376,1590.055z" /><path
       id="path5779"
       fill="#FEFEE4"
       stroke="#0978AB"
       stroke-width="0.7"
       stroke-linecap="round"
       d="M586.274,1082.976   c-2.549-2.026,0.227-3.696,2.154-1.909C589.548,1083.183,587.918,1084.348,586.274,1082.976z" /><path
       id="path5781"
       fill="#FEFEE4"
       stroke="#0978AB"
       stroke-width="0.7"
       stroke-linecap="round"
       d="M578.662,1039.855   c-0.422-4.365-1.285-9.195-4.864-12.082c-1.251-1.838-1.622-4.291-3.974-5.103c-1.799-2.173-4.828-2.887-6.238-5.53   c-2.242-0.901-4.069-2.783-3.676-5.424c0.449-2.391,1.938-5.248-0.093-7.53c-1.226-2.075-3.698-3.985-3.063-6.646   c2.481,0.07,5.807,0.71,6.795,3.274c3.238,1.761,5.735,4.654,8.728,6.605c1.846-0.29,3.938-2.034,4.527,1.044   c1.398,1.204,3.025,2.968,1.302,4.756c-0.662,2.094,3.187,3.532,0.818,5.501c0.361,2.206,3.521,2.571,4.789,4.379   c2.33,1.435,3.016,4.577,1.262,6.768c-0.604,3.149,0.223,7.471-2.523,9.665c-1.077,1.233-2.895,4.371-3.588,0.834l-0.016-0.297   L578.662,1039.855z" /><path
       id="path5783"
       fill="#FEFEE4"
       stroke="#0978AB"
       stroke-width="0.7"
       stroke-linecap="round"
       d="M587.389,1003.556   c-0.035-2.321,3.735-3.433,4.011-0.697c-1.916-0.45-3.917,4-3.939,1.161l-0.033-0.194L587.389,1003.556z" /><path
       id="path5785"
       fill="#FEFEE4"
       stroke="#0978AB"
       stroke-width="0.7"
       stroke-linecap="round"
       d="M569.676,978.104   c-3.76-1.052-6.991-3.373-10.546-4.888c-1.779-1.424-3.772-2.73-5.756-3.705c-2.579,0.277-5.084-0.715-7.549,0.321   c-2.646-0.051-6.37-1.838-6.266-4.886c-1.021-1.165-3.469-4.127-0.25-3.999c2.363,1.344,3.664-1.279,5.97-1.156   c2.604-0.922,3.57,2.371,2.88,4.176c-1.347-0.187-3.938-2.239-4.997-0.738c0.322,2.464,3.539,3.002,5.371,3.45   c3.1,0.958,1.769-4.007,4.804-2.432c3.771-1.205,1.047,0.775,0.459,2.184c3.153,2.789,7.775-0.062,11.127,2.061   c1.508,2.66,5.905,0.142,6.685,3.544c0.376,2.537,4.961,3.089,3.49,5.854C573.467,978.631,571.412,978.209,569.676,978.104z" /><path
       id="path5787"
       fill="#FEFEE4"
       stroke="#0978AB"
       stroke-width="0.7"
       stroke-linecap="round"
       d="M434.176,878.384   c-1.282-1.474-3.36-4.539-0.445-5.478c2.123-1.951,5.2,0.165,6.943,1.665c2.373,0.17,3.154,2.708,5.385,3.274   c2.461,2.944-1.378,1.449-2.993,1.437c-2.155,1.248-3.432-1.512-5.621-0.631C436.142,877.9,435.363,879.979,434.176,878.384z" /><path
       id="path5789"
       fill="#FEFEE4"
       stroke="#0978AB"
       stroke-width="0.7"
       stroke-linecap="round"
       d="M460.986,839.72   c-1.947-3.571-2.941-9.463-8.021-9.61c-2.018-0.189-5.188,1.164-5.559-1.887c-0.611-3.382-1.063-7.036-3.54-9.66   c1.439-0.182,4.094,0.156,6.054-0.697c3.035,0.223,7.729,1.981,6.496,5.879c-1.172,1.962-0.923,4.429,1.784,4.7   c1.97,2.516,6.022,3.547,5.645,7.384c-0.062,1.481,0.097,6.25-2.266,4.645C461.352,840.251,461.416,839.746,460.986,839.72z" /><path
       id="path5791"
       fill="#FEFEE4"
       stroke="#0978AB"
       stroke-width="0.7"
       stroke-linecap="round"
       d="M643.757,1152.892   c-0.891-3.665,3.051-2.759,0.836,0.228C644.546,1153.479,643.622,1153.274,643.757,1152.892z" /><path
       id="path5793"
       fill="#FEFEE4"
       stroke="#0978AB"
       stroke-width="0.7"
       stroke-linecap="round"
       d="M496.709,774.691   c1.203,1.295,3.533,2.218,3.602,4.135c-2.104-1.252-4.139-2.66-5.16-4.94C493.484,772.523,496.765,773.983,496.709,774.691z" /><path
       id="path5795"
       fill="#FEFEE4"
       stroke="#0978AB"
       stroke-width="0.7"
       stroke-linecap="round"
       d="M370.529,760.138   c3.795-0.551,1.083,2.265-1.049,1.091C368.52,760.339,369.836,760.163,370.529,760.138z" /><path
       id="path5797"
       fill="#FEFEE4"
       stroke="#0978AB"
       stroke-width="0.7"
       stroke-linecap="round"
       d="M357.05,750.473   c1.748,1.975,4.981-0.4,3.306,2.147c-1.412,0.085-6.043-1.276-3.677-2.631l0.278,0.361L357.05,750.473z" /><path
       id="path5799"
       fill="#FEFEE4"
       stroke="#0978AB"
       stroke-width="0.7"
       stroke-linecap="round"
       d="M324.595,752.943   c2.15,0.937,3.701,1.547,5.699,2.747c1.611,0.978,5.175,0.096,4.884,2.997c0.848,2.291,1.766,3.543,4.065,4.197   c1.188,3.083,4.753,1.604,7.187,2.193c0.607,2.266-2.078,3.506-2.34,5.691c-2.149,1.014-4.258-3.286-6.312-0.753   c-1.894-0.247-3.861-2.633-5.681-1.342c-1.943-0.852-4.353,1.043-5.905-1.073c-2.368-1.243-1.494-3.09-2.04-5.197   c-1.427-1.768-1.28-3.815-2.677-5.542c0.554-1.74,0.829-3.68,1.887-4.915C323.884,752.119,323.906,752.854,324.595,752.943z" /><path
       id="path5801"
       fill="#FEFEE4"
       stroke="#0978AB"
       stroke-width="0.7"
       stroke-linecap="round"
       d="M375.579,714.118   c3.628,2.013-2.014,0.302-1.671,3.115c0.633,3.038-1.758,2.825-0.558-0.431c-0.584-1.46,2.523-5.857,1.895-2.847L375.579,714.118z" /><path
       id="path5803"
       fill="#FEFEE4"
       stroke="#0978AB"
       stroke-width="0.7"
       stroke-linecap="round"
       d="M381.372,713.421   c2.223,2.831,0.907,1.149-1.129,2.12c-1.178,2.883-1.847-2.72,0.273-1.799C380.372,712.177,380.649,712.421,381.372,713.421z" /><path
       id="path5805"
       fill="#FEFEE4"
       stroke="#0978AB"
       stroke-width="0.7"
       stroke-linecap="round"
       d="M337.258,693.713   c3.172,1.412-4.158,3.296-1.209,1.531C336.968,694.834,335.903,691.337,337.258,693.713z" /><path
       id="path5807"
       fill="#FEFEE4"
       stroke="#0978AB"
       stroke-width="0.7"
       stroke-linecap="round"
       d="M292.289,704.185   c2.603-0.741,4.369,2.535,7.092,1.611c2.444,0.052,2.662,5.086,0.048,3.028c-2.313-0.113-4.857,0.736-6.732-1.257   C291.201,706.678,288.004,703.323,292.289,704.185z" /><path
       id="path5809"
       fill="#FEFEE4"
       stroke="#0978AB"
       stroke-width="0.7"
       stroke-linecap="round"
       d="M106.659,566.822   C107.319,569.842,103.539,567.064,106.659,566.822z" /><path
       id="path5811"
       fill="#FEFEE4"
       stroke="#0978AB"
       stroke-width="0.7"
       stroke-linecap="round"
       d="M95.073,553.237   c0.633,2.878,2.48,1.453-0.342,3.515c-1.12,1.502-3.786,0.335-4.968,2.553c-4.364,1.253,1.562-1.272-0.491-2.604   c-1.364-0.74-5.962,2.304-4.597-0.402c2.054-1.002,3.177-2.978,5.57-2.739C92.252,553.207,93.16,551.331,95.073,553.237z" /><path
       id="path5813"
       fill="#FEFEE4"
       stroke="#0978AB"
       stroke-width="0.7"
       stroke-linecap="round"
       d="M226.525,502.652   c1.835,0.354,4.109,3.543,0.768,1.7C224.355,504.631,222.303,503.424,226.525,502.652z" /><path
       id="path5815"
       fill="#FEFEE4"
       stroke="#0978AB"
       stroke-width="0.7"
       stroke-linecap="round"
       d="M281.558,491.967   c4.405,0.208-2.866,3.083-0.132,0.242l0.132-0.082V491.967z" /><path
       id="path5817"
       fill="#FEFEE4"
       stroke="#0978AB"
       stroke-width="0.7"
       stroke-linecap="round"
       d="M356.158,482.408   c-0.955,0.937-0.827,5.557-2.803,4.123c0.171-2.12-1.189-3.558,1.307-4.082C355.199,481.812,355.542,482.129,356.158,482.408z" /><path
       id="path5833"
       fill="#FEFEE4"
       stroke="#0978AB"
       stroke-width="0.7"
       stroke-linecap="round"
       d="M428.758,767.658   c1.639,2.013,2.982,2.695-0.927,2.738c-2.834,1.43-2.9-0.573-0.41-1.558C427.349,767.771,428.566,764.884,428.758,767.658z" /><path
       id="path5845"
       fill="#FEFEE4"
       stroke="#0978AB"
       stroke-width="0.7"
       stroke-linecap="round"
       d="M1943.727,1712.327   c-0.649-2.646-2.967-0.252-3.1,1.421c-1.885,0.567-3.676,3.438-0.43,3.036c2.34,0.071,3.194-2.74,3.535-4.383   c0.528,4.128-0.797,8.156-3.646,11.147c-1.715,1.993-2.804,4.489-4.119,6.628c0.455-1.296-2.287-3.793-3.529-2.171   c2.226,3.188-0.045-0.371-1.424,1.716c-0.932,2.691,4.131,3.679,4.749,0.873c0.159,0.152-2.001,2.779-2.711,3.868   c-2.626,4.845-6.694,9.05-7.782,14.593c1.211-3.416-3.39-1.359-1.299,0.968c3.555,3.203-0.322,7.759-0.26,11.599   c-0.829,4.447,2.713,9.379-0.372,13.371c0.261,2.306-0.968,4.865,0.854,6.659c-0.267,4.021-0.314,8.154-0.297,12.458   c-1.055,1.26-3.375,1.852-3.883,3.786c1.328,1.389,1.211,1.566,1.744,3.964c-0.713,1.446-1.669,4.309-3.691,2.828   c-3.233,0.27,1.297,4.466-1.564,4.111c-1.764-0.991-3.758-0.541-5.49-1.479c0.803,2.341-1.988,2.912-2.531,4.897   c-1.219,2.651,3.229,3.514,3.72,0.9c1.099-2.875,3.338-0.144,4.787,0.049c3.17-0.355-0.058,3.039,0.151,4.569   c-0.516,2.344-3.93,1.625-5.014,3.76c-1.842,1.258-1.996,5.162-4.874,4.115c-0.231,0.834,2.081,3.031-0.288,4.477   c2.402,0.377,1.891,2.775,1.168,4.979c-2.092,1.248,0.555,1.959-2.578,2.54c-1.263,1.747-3.123,3.226-5.348,3.329   c0.245,1.406,3.107,3.354,1.038,5.34c-2.757,1.647,1.224,2.479,1.599-0.077c1.01-2.062,3.82-2.931,2.387,0.313   c-1.719,2.622-2.578,5.782-4.059,8.438c-2.076,0.297-5.746,1.394-6.053-1.719c-0.812-2.156-4.117-1.589-5.235-3.76   c-1.661-1.197-4.832,2.493-4.44-1.153c0.709-1.9,1.815-3.04,2.177-5.021c2.876-1.78-1.004-2.357-2.132-3.354   c-1.807,1.295-4.295,0.4-3.364-2.283c1.615-1.445,1.539-4.609-0.74-2.178c-0.194,1.557-4.016,3.446-3.419,0.941   c-0.679-1.325-2.938,0.554-3.605-1.63c-1.741-1.757-3.178,0.353-4.637-0.679c-1.406-1.573-2.853-2.532-4.731-1.798   c-2.562,0.495-1.354-2.998-3.661-3.305c-3.466,1.149-2.061-1.135-3.83-2.488c-1.475,0.473-5.337,1.313-3.447-1.432   c1.658-1.483-1.881-3.371-3.269-2.362c-0.937-1.815-3.087-1.81-4.093-3.302c0.871-1.708,1.945-3.377-0.104-4.754   c-2.653-0.574,2.108-2.383-0.147-4.242c0.917-1.554,0.207-4.229,2.319-5.104c1.209,1.479,2.993,0.771,4.438-0.642   c1.543-1.402,5.107,0.264,4.9-2.899c-0.862-3.151,2.312-3.074,4.336-3.498c2.006-1.177,0.776-4.297-1.514-3.215   c-2.279,0.521-3.601-1.763-6.1-0.891c-2.598-0.26-4.159-3.797-7.12-2.17c-0.784,2.454-2.753-0.694-2.785-1.935   c1.687-1.634,1.064-4.77-1.671-3.274c-2.605,0.571-4.864,2.257-7.464,2.791c-0.105-1.974-0.568-4.077-3.646-3.562   c-3.511,0.665-1.389-3.479,0.822-1.593c2.63,0.003,4.805-2.823,5.652-5.073c0.498-1.606-3.393-3.728-1.271-4.378   c2.4,1.809,3.676-2.459,6.164-1.288c0.509-1.283,3.874-2.814,2.268-4.136c-0.954-1.311-4.273-1.644-3.381-2.577   c1.522-0.412,5.563,0.059,4.084-2.849c-1.508-1.454-1.269-3.785,0.967-4.295c2.467-2.374-0.396-5.349-1.745-7.464   c-1.697-0.387-3.986-1.681-5.347-0.566c-0.333,2.794-3.656,3.787-6.166,3.573c-2.48,1.048-5.098-0.65-7.464,0.377   c-1.952,2.141-2.28,1.872-2.636-0.967c0.333-1.699,2.954-4.711-0.074-5.263c-0.352-1.46-3.368-2.878-2.213-4.646   c2.24-0.918,4.516-0.018,6.817-0.242c0.602-1.31,4.132-2.846,2.056-4.175c-2.141-1.012,0.19-4.133,1.397-5.329   c1.327-1.69,4.142-0.457,5.605-2.31c0.843-2.083,4.416-0.544,3.317-3.712c-0.574-2.2-3.995-0.827-3.131-4.075   c-2.438-1.32-1.177-5.056-3.381-6.336c-1.412,0.321-4.259,2.652-4.777,0.209c-0.028-2.267-2.492-2.22-3.984-2.84   c-0.863-2.745-4.121-0.062-4.839-1.048c1.52-1.601,0.664-4.841-1.883-3.355c-2.171,0.299,1.969-1.751,2.524-2.793   c0.359-1.931-5.479,0.168-2.416-2.476c2.39,0.509,1.523-4.364,0.076-4.666c-1.263-0.115,1.501-3.992-1.272-4.242   c-3.495,0.5-1.984-2.912,0.791-1.825c2.605-0.599,4.507-4.193,7.399-2.686c2.388-0.236,4.24-2.805,6.929-2.536   c2.592-1.526-1.072-2.75-1.295-4.393c-0.687-2.712-4.075-0.835-4.479-3.032c-0.206-3.285-3.665,1.086-4.396-1.53   c-1.471-2.783,4.093-1.489,3.936-4.188c-1.939-0.855-2.365-3.552-5.13-2.562c-2.219-0.071-2.858,3.114-4.673,3.261   c-0.037-2.496,0.497-5.207-1.003-7.41c-0.166-2.806,3.323,1.984,3.653-1.745c1.118-1.49,5.293,0.408,4.145-2.443   c-0.434-1.624-0.223-4.295,2.234-4.364c1.787,0.176,5.058,1.919,4.449-1.543c-1.162-2.505,0.127-2.622,0.657-5.039   c1.581-1.066,1.96-4.498-0.806-3.337c-2.42-0.578,1.317-3.318,0.631-5.075c-0.889-2.676,2.447-1.807,3.188-3.458   c1.484-0.789,4.126,0.388,2.42-2.637c1.276-1.878,1.666-4.769-0.009-6.375c1.582-3.734,1.044,2.093,3.058,0.538   c3.188-1.772,2.313,2.091,4.823,1.702c1.907-0.64,4.839-1.775,4.012-4.376c1.011-1.393,0.334-5.197,3.085-3.695   c1.627-0.65,2.86-2.76,5.084-1.541c1.646-0.914,1.656-4.267,4.351-3.264c1.394-0.13,3.781-2.373,4.548-1.479   c2.331,1.085,5.08-0.105,7.292-0.733c1.529-0.701,3.541,0.441,4.204-2.349c1.839-0.256,5.166-1.184,3.482-3.666   c-0.562-2.739,1.503-3.222,2.562-5.155c0.793-2.309,3.345-2.587,4.604-4.562c1.475-1.89,3.302,1.11,4.531-1.235   c2.681-0.22,5.424,2.222,7.871,0.43c1.733,0.652,3.43,2.163,5.549,2.12c-0.527,2.64,2.104,2.689,2.731,4.754   c0.38,1.367,1.712,5.544,2.651,2.19c1.537-1.526,3.97-3.179,2.918-5.79c0.13-1.959,3.25-2.556,2.904-5.019   c0.17-2.825-1.451-5.499-0.526-8.353c0.448-3.67-2.69-6.108-3.862-9.184c0.947-1.92,1.758-4.102,3.182-5.5   c-0.32-2.307-3-5.331-0.174-7.118c0.42-1.696,4.415-2.289,2.99-3.978c-0.948-1.641,1.393-3.844-1.245-4.775   c0.788-2.887-1.487-5.978-0.11-8.753c1.771-0.612,4.06-1.823,5.875-0.981c1.733,1.594,4.354-2.691,5.152,0.659   c1.229,1.293,4.24,1.892,3.514,4.198c-0.742,2.336-1.383,5.103,0.832,6.917c-0.74,1.845,0.445,3.86,0.088,6.201   c-0.011,1.989,2.013,3.968,0.32,5.772c2.654,2.51,0.864,6.556,2.266,9.561c1.418,4.33-1.911,7.863-2.74,11.835   c-0.671,4.366-1.46,8.71-2.141,13.036c-0.808,2.896,1.352,6.164-0.949,8.742c0.543,1.738,2.451,2.957,2.682,5.127   c-1.025,2.227,1.605,3.271,1.439,5.561c0.733,1.739,2.976,2.593,4.567,3.383c0.382-3.209-1.188-6.732-3.452-9.021   c-1.187,2.046-0.235,2.616-0.633-0.806c-0.808-1.109-2.609-4.28-2.302-4.402c2.399,3.834,5.297,7.397,7.093,11.599   c2.104,3.8,3.143,8.387,1.447,12.565c-0.85,4.145,2.314,7.823,1.709,12.056c0.827,3.331-0.375,6.603-1.251,9.823   c0.293,5.224,1.384,10.436,3.233,15.354c-0.195,3.245,1.386,6.382,0.171,9.594c-0.741,3.757-0.313,7.52,0.334,11.223   C1943.868,1706.635,1943.53,1709.443,1943.727,1712.327z" /><path
       id="path9417"
       fill="#FEFEE4"
       stroke="#0978AB"
       stroke-width="0.7"
       stroke-linecap="round"
       d="M1055.906,74.844   c-6.868,3.069-13.271,6.056-20.156,7.156c-2.469-0.846-4.712,0.536-6.719-1c-5.183,1.394-10.187,3.718-15.625,4.094   c-3.068,1.312-5.954,3.035-9.312,3.656c-3.724,2.024-7.986,0.492-11.875,1.562c-4.105,0.308-8.027,1.677-12.094,2.125   c-2.327,0.024-4.796,1.31-6.906,2.594c-3.997-0.272-7.205,2.417-10.938,3.156c-3.771,1.095-7.803,2.584-10.5,5.656   c-4.631,2.728-6.482,9.092-12.219,10.062c-1.907,0.697-5.345-0.006-5.875,2.438c1.248,5.939,4.514,11.883,2.938,18.094   c-0.109,5.048-5.053,8.488-4.5,13.625c0.7,6.303,2.053,12.542,1.688,18.906c-0.547,2.768,1.325,4.574,3.031,6.344   c2.43,3.445-1.958,0.881-2.812,2.906c-0.71,6.909-0.285,13.953-1.656,20.781c-1.195,2.208-1.372,5.098,1.125,6.469   c1.849,0.833,4.741,1.691,4.125,3.594c-2.388-1.086-4.264,0.913-6.562,1.062c-1.745,4.085-1.252,8.736-2.595,12.969   c-0.128,2.132,1.187,5.239,3.438,5.594c3.062-1.848,2.082,3.217,4.344,2.094c1.292,2.21,2.626,5.309,5.25,5.969   c3.268-0.397,4.304,1.636,1.25,2.188c0.812,1.783,5.002,2.991,1.156,3.938c-3.267-1.028-6.294-2.72-9.344-4.312   c-1.973-1.057-2.944-3.181-5.5-1.531c-4.909,1.457-7.019,6.639-8.375,11.094c-0.562,5.416-3.789,10.139-8.095,13.281   c-4.775,3.255-9.739,6.351-13.719,10.625c-3.69,3.052-6.688,6.729-10.812,9.219c-5.854,2.686-12.14,4.604-17.406,8.406   c-3.678,0.948-7.584,1.754-11.438,1.469c-3.545-0.885-6.112,1.91-9.155,2.969c-3.898,1.67-8.177,1.818-12.125,3.125   c-4.412,3.147-10.022,2.623-15.095,2.156c-3.61,0.813-7.275,1.491-10.655,3c-4.43,0.946-8.263,3.41-11.656,6.344   c-2.688,0.374-4.146,2.849-6.531,3.688c-4.396,2.521-9.327,3.638-13.406,6.656c-1.515,2.594-4.143,3.846-7.031,4.188   c-3.543-0.127-5.888,2.682-8.969,3.812c-2.604-0.204-4.41,1.595-6.219,3.062c-1.396,1.894-3.305,3.599-3.469,6.188   c-0.658,6.996-4.436,12.988-7.625,19.062c-1.324,3.349-4.943,6.821-3.219,10.562c2.683,1.16,3.188,4.428,6.062,5.344   c1.246,1.736,5.766-0.178,4.406,2.5c3.424,1.103,2.727,0.001,4.125-1.281c1.963,0.925,3.897,1.436,5.625,2.906   c3.868,0.707,7.881,1.221,11.812,1.188c7.435,0.257,14.092-3.468,20.656-6.281c-3.804,4.726-9.382,7.387-15.219,8.688   c-4.659,0.637-9.328,1.782-14.031,1.781c-2.077,1.278-4.919-0.783-6,1.344c-3.677,1.573-8.168,1.518-11.219,4.375   c-2.944,1.914-4.103,5.477-6.594,7.75c-5.48,2.47-10.363,6.229-16.031,8.25c-5.087,2.729-10.96,2.72-16.5,3.625   c-1.913,0.427-5.141,0.676-4.562,3.094c-1.603,0.168-1.492-1.477-3.094-2.875c-4.365-0.854-8.324-2.823-12.312-4.688   c-4.21-1.062-7.584-5.352-12.219-4.469c-5.86,1.578-11.371-4.039-17.031-1.156c-3.502,1.685-7.099,0.058-10.594-0.531   c-7.767,0.535-15.339-1.508-23-2.281c-3.957-0.955-8.438-2.092-10.812-5.688c-4.083-0.373-8.32-0.998-12.345,0.062   c-2.652,1.358-5.73-1.355-7.969,0.781c-1.243,1.755-4.637,3.137-3.781,5.594c2.272,2.238-1.416,3.99-3.375,3.188   c-1.272-1.162,0.58-5.472-2.53-3.188c-1.727,1.614-4.879,0.811-2.438-1.344c1.356-1.66-0.174-4.479,1.5-6.281   c0.262-2.853-2.604-4.962-4.156-7.125c-4.021-3.26-6.676-7.728-9.155-12.156c-2.684-3.805-5.768-8.65-3.562-13.406   c0.902-2.735,5.045,0.024,5.062-2.281c-0.128-2.043,0.501-5.792,3.03-3.469c2.404-1.258-0.195-4.397-0.25-6.406   c0.634-3.519-5.312-5.442-2.655-9c-2.354-0.018-4.786,0.145-7.031-0.844c-3.077-0.185-6.088-1.518-9.156-1.25   c-3.562-0.443-6.742,1.834-10.219,1.5c-0.826,2.159-1.771,4.431-3.844,5.688c-3.158,3.167-7.697,0.888-11.438,1.625   c-1.093,1.878-4.719,2.335-4.219-0.656c-2.157-0.095-5.537,1.848-6.719-0.844c0.06-2.969-3.89-0.226-5.219-2.594   c-2.763,0.66-5.222-0.618-7.938-0.781c-1.644-1.883-4.918,0.546-5.625-2.219c-0.346-3.077-4.04-4.116-6.25-2.188   c-2.272,1.046-2.602-2.561-4.875-2.75c-1.854-1.669-5.35-0.34-4.25,2.438c1.002,2.229,0.249,4.211-0.219,6.344   c2.556,1.381,5.725,1.388,8.438,2.531c4.327,1.287,3.979,6.631,4.845,10.219c1.233,3.884-0.807,7.594-3.281,10.406   c-2.808,0.984-2.932,4.677-0.531,6.188c3.289,0.933,3.873,4.57,3.281,7.5c2.185,2.287,3.769,5.237,3.469,8.562   c-0.61,3.128,0.378,6.106,0.656,9.125c1.75,2.529,4.104-2.125,5.094-0.125c-1.986,2.106,2.529,2.257,3.219,3.938   c1.513,1.314,1.862,5.359,4.438,4.344c0.446-1.844,0.451-5.634,2.094-2c1.363,2.383,1.635,3.88-1.625,3.344   c0.035,1.992,1.86,3.246,2.688,4.875c0.809,1.723,5.206,1.941,2.094,3.75c1.812,2.185,2.302,4.988,3.156,7.625   c0.372,1.172,2.229,5.797,2.688,2.781c-0.035-3.04,3.706-2.279,5.562-1.844c0.785,1.215,5.948,2.354,2.5,2.625   c-1.78-1.616-4.115-0.067-6.156-0.281c-0.541,2.712,0.517,5.228,0.875,7.844c0.223,1.819,0.076,5.259,1.656,5.812   c1.235-2.71,3.581,3.181,0.312,2.375c-2.944-1.01-1.776,3.384-2.812,4.969c-0.847,2.268,0.226,4.684,2.655,5.156   c-1.478,1.739-1.811,3.844-1.312,6.094c0.703,2.098,0.373,5.385,2.281,6.562c0.979-1.855,1.52-4.987,4.188-5.469   c1.714-0.442,5.516,0.62,4.75,2.75c-1.304-1.618-4.263-2.534-5.688-0.438c-0.515,2.37,0.366,4.503-0.5,6.845   c0.219,2.225-1.441,5.391,0.25,7.03c3.423-1.145,0.975,3.919,0.875,4.47c-0.636-3.906-2.179,0.9-1.906,2.562   c-0.965,3.742-0.297,8.334-3.094,11.312c-3.334,2.142-1.05,0.827,1.312,1.938c1.967,4.336,2.373,9.322,2,14.062   c-0.914,2.638,1.385,4.188,3.531,4.938c3.702,1.465,2.291,6.443,5.125,8.5c2.213,0.479,4.56,1.068,6.219,2.75   c0.016,3.813,2.13,0.025,4.031-0.062c1.284,1.285,2.103,3.049,4.875,3.125c2.278-0.279,3.368,4.698,0.75,2.188   c-2.446-0.089-4.98-0.798-7.406-0.188c-1.848,1.123-4.231,0.671-5.5,2.344c-2.175-0.78-4.399,0.495-5.938-0.688   c-3.321,0.017-7.128-2.107-10.125-0.03c-3.31,4.728-9.608,3.783-14.625,4.375c-2.016,1.058-6.197-1.612-6.375,1.155   c-2.015-0.629-4.282-1.289-6.562-0.938c-3.803,0.281-4.933-3.632-6.344-6.281c-0.878-1.582,0.119-4.808,1.655-5.656   c2.513-0.784,1.634-3.314,0.656-4.969c0.271-2.596-2.781,1.229-4.438,0.906c-1.771,1.254-3.977,0.291-5.875-0.25   c-3.725,0.407,0.229,2.323-2.688,2.344c-1.338-0.66-6.284-0.826-4.5,1.594c0.288,3.234-3.564,3.213-5.655,4.25   c0.868,2.113,0.51,2.967,1.625,4.97c1.172,1.665,0.844,3.922,2.344,5.125c0.449,2.011,3.981-0.464,4.469,2.438   c2.463,2.202-0.041,2.949-1.656,0.72c-1.834,0.331,0.606,3.654,0.562,5.03c4.063-0.996-0.947,4.084,2.938,3.25   c2.816,1.673-2.039,2.07-2.469,3.531c-2.146,2.816-1.814-1.933-0.531-3.156c-1.041-1.546-2.295-2.838-3.25-4.562   c-2.536-1.486,1.351-4.298-1.844-4.625c-1.038-1.647-1.663-3.771-1.906-5.625c1.387-3.371-4.101-1.318-2.531-4.781   c-2.181-1.145-4.732,1.312-6.905-0.281c-1.102,0.121-3.569,1.203-5.281,1.781c-1.302,1.146,1.647,3.253,2.281,4.594   c-1.521-0.682-3.05-3.358-4.22-0.312c-2.903,1.839,1.077,3.356-0.655,4.844c-2.374,2.572-3.268-1.564-2.688-3.438   c-1.551-3.702-0.651,2.039-1.562,3.281c-2.179,3.271-1.008-1.075-2.781-2.281c0.958-2.977-3.318-2.327-2.781-4.844   c-0.169-1.369,0.154-5.209-1.53-4.312c-2.306,2.068-5.479,2.995-7.062,5.78c-1.775,0.636-3.146-2.635-0.875-3.53   c2.564-1.046,2.04-4.179,3.906-5.875c0.182-1.517-4.309-1.075-3.188-4.375c-2.512-0.574-0.584,4.042-3.25,4.062   c-1.967,1.199-4.421,1.504-5.905,3.344c-1.802,0.402-3.724,4.296-3.72,0.47c-0.951-2.148-4.407-0.634-6.312-0.438   c-3.424-0.115-2.76,2.24,0.188,2.438c-0.498,2.666-3.501,3.594-5.344,5.219c-1.551,1.654-3.737,2.161-5.812,1.906   c-1.812,1.803-3.304,4.127-5.188,5.969c-0.688,2.594-3.78,3.204-4.875,5.438c-1.341,2.5-3.77,0.23-5.312-0.375   c-2.514,1.021-0.271,4.329-1.5,6.312c-1.063-0.241-2.235-3.131-3.844-3.75c-0.604-2.551-3.04-1.069-0.719-3.812   c0.406-2.303-0.496-2.946-3.156-3.531c-2.233-0.293-2.896-2.344-4.188-3.719c-1.861-0.757-4.181-1.482-5.406-3   c2.052-1.906-0.065-4.047-0.188-6.22c0.741-2.403-0.622-4.057-2.438-5.28c-0.586-3.005-4.377-1.608-5.719-3.656   c-0.179-2.487-1.035-3.566-3.22-4.469c-1.846-0.946-2.454-3.169-4.125-4.095c1.213-1.776,0.733-3.492,1.156-5.375   c-2.393-1.616-1.374-2.742-3.938-0.78c-2.411-0.869-5.181-0.901-7.469-2.125c-0.512-2.562,1.793-1.388-2.188-1.812   c-0.243-1.036,2.798-2.826,4.188-3.312c-0.808-1.271,0.858-4.415-2.531-3.938c-1.861,1.787-4.184-1.5-5.5,0.906   c-1.61,2.033-1.189,4.922-2.688,6.844c-0.255,2.129-2.42,2.743-3.094,4.688c-1.369,1.247-0.223-3.82,1.188-4.405   c2.692-0.996,1.829-3.982,2.875-5.97c2.524-1.913-1.214-3.354,0.094-4.844c0.781-1.883,0.208-4.189-0.312-5.562   c-0.234-2.022-3.264,1.349-4.781,1.219c-1,2.444-3.172,0.837-4.5,2.438c-1.045,2.062-4.229,1.064-3.625,4.344   c-0.093,3.108-4.518,3.022-4.344,6.062c-0.367-2.348,2.194-4.334,2.094-6.875c0.368-2.287-1.975-3.422-0.655-5.969   c-0.759-2.663-3.714,0.014-4.25,1.625c-0.84,1.876-2.028,3.852-3.781,2.281c-1.138,3.041-4.438-0.869-6.5,1.094   c-1.591,2.021-4.308,1.352-6.281,2.5c-0.945,1.9-2.101,3.704-4.75,3.625c-3.826,1.105-1.298-2.474-1.438-3.438   c-2.072,1.067-3.952-0.179-5.125-1.938c-1.661-3.625-1.325,1.86-3.344-0.312c-1.499,1.225-3.004-1.886-3.906,1.562   c-2.581-0.996-2.458,2.386-1.688,3.531c-0.667,2.859-4.206,0.768-5.125,2.844c-0.561,1.664-1.362,5.539,1.438,4.656   c1.968,1.02,1.9,3.838,3.5,4.75c1.751,0.994-3.253,0.868-4.312,1.406c-2.416,0.644-0.824,4.344-0.844,6.28   c2.804,1.601-0.552,5.61-2.844,3.656c-1.199-2.863-2.742-1.539-4.656-0.75c-2.394-0.808,1.57-4.87-2.125-3.031   c-2.254,1.767-4.458-0.396-6.844-0.688c-1.168-2.54-4.62-2.506-7-2.312c-1.814,1.639-3.549-0.456-4.938-1.53   c-1.836-0.703-0.723,3.348-3.438,1.155c-0.034,2.193-2.198,3.256-1.75,5.375c2.017,2.035-0.393,5.245-0.969,1.345   c-2.242-1.696,0.14,2.439,0.062,3.905c0.247,0.459,1.501,6.009-0.312,5.438c-0.165-2.446-2.698-2.683-4.438-3.562   c-2.416-0.988-2.183-3.726-0.688-4.938c-2.256-0.932-3.648-0.548-4.625,1.781c-2.072,1.022-3.39,4.004-2.312,0.03   c1.028-2.527-3.409-2.963-1.719-5.655c-2.061-1.017-1.196-3.966-0.375-5.875c-1.644-2.238-3.388,1.071-4.594,1.812   c-1.575,0.694-3.844,1.225-5.75,1.656c-0.731,1.624-1.07,3.912-1.812,5.25c-0.117,1.831-1.517-3.861-4.031-1.875   c-2.142-1.861-5.051,0.044-7.5,0.25c-3.058-0.255-4.684,2.412-6.969,3.78c-3.151,2.403,1.359,2.615,1.812,3.625   c-2.495,1.512-4.72-1.375-7.188-0.155c-1.998,0.161-4.799,0.858-5.469,2.75c-3.178,0.809-1.693-2.068-0.5-3.312   c1.228-2.842-2.729-2.696-3.656-3.938c-3.425-1.583-5.269,2.479-8.25,3.094c-1.157,0.708-6.427,0.577-3.562,2.281   c4.104,1.664-0.482,0.882-2,1.938c-1.848-1.803-2.975,1.201-5.031,1.22c-2.599,1.603-3.88-1.229-5.844-1.031   c-2.901-1.535-2.254,1.996-4.938,1.594c-1.213,1.954,2.746,1.724,1.188,3.938c3.943,0.377,1.492,1.64-1.188,1.531   c-2.824,0.287-3.175-2.313-4.938-2c-0.824,1.247-1.997,5.576,0.281,5.062c1.529,0.148,3.33,4.294,0.406,3.312   c-0.031-2.234-2.839-2.724-4.344-3.562c-1.792,1.6-4.48-0.378-5.688,1.625c-1.417-0.16-5.068-0.656-3.625,2.281   c-0.962,1.116-3.577-1.75-4.562,1.375c-0.816,1.938-2.174,2.928-3.094,4.655c-0.689,1.9-3.069,3.376-1.375,5.72   c0.122,2.461,2.673,3.104,3.438,4.094c-1.303,1.646-3.088-0.129-3.906,2.938c-0.234,2.318-0.796,3.943-1.656,5.875   c0.668,2.188,2.224,3.018,2.156,5.344c2.188,0.757,2.038,3.926-0.344,4.156c-2.234,0.393,0.341,3.558,0.625,5.125   c0.528,2.88,3.628,1.459,5.562,1.469c2.228,0.871,5.218-0.486,4.219-3.188c2.136-2.742,5.108,0.375,7.656,0.375   c2.012,2.987,5.893,0.275,8.281-0.906c2.947-1.109,6.12-1.476,8.594-3.625c3.705-1.72,7.54-3.527,11.594-3.938   c3.265-0.626,6.516-1.699,9.562-3.094c1.703-0.265,3.985-2.771,5.188-1.845c-2.972,3.421-7.592,4.468-11.531,6.375   c-2.417,0.186-3.156,2.499-4.906,3.656c-2.803,0.55-1.942,3.781-2.812,5.531c-2.74,2.309,1.381,1.316,2.719,0.405   c2.725-1.349,3.553-0.781,1.875,1.406c2.118,0.332,5.225,0.235,5.594-2.5c0.76-2.401,4.289,0.426,4.938-2.438   c0.019,0.511-0.188,3.601,2.938,0.906c-0.089-2.264,6.451-1.068,2.656-0.781c0.399,2.148-2.971,2.578-3.312,3.656   c-0.531,1.019-4.186,3.434-0.406,2.655c1.948,2.136,4.312-2.079,4.406,0.97c1.847,0.599,3.393,2.847,4.875,0.375   c-0.31,1.084,0.51,3.039,3.5,2.312c4.438-0.639,1.515,1.606-1.156,1.188c-2.513-1.414-3.787,1.706-6.062,1.875   c-4.406-0.404-0.931-1.468-0.375-2.188c-2.41-0.431-5.268-1.004-7.531,0.344c-3.384,0.57-6.823,3.783-10.312,1.906   c-0.681-2.554-2.577-3.131-5.094-2.406c-2.004,0.38-3.845,1.313-5.875,1.75c-1.124-0.512-2.672-3.986-3.562-0.405   c-1.744,0.204-4.594-2.62-2.594-4.095c-0.535-1.997,2.549-4.231,1.156-5.594c-2.39,0.727-5.836,2.307-5.656,5.219   c0.936,1.896,2.073,5.893-1.188,6c-1.097-1.323-4.52-1.869-4.062,0.5c-0.086,3.665,0.318,1.804,2.625,3.156   c1.65,2.311,4.06-0.301,6.062,0.312c2.62,0.978,0.634,3.821-1.312,4.22c0.239,3.301,3.646,6.297,1.469,9.688   c-2.018,2.899,2.867,2.326,2.688-0.312c2.464-1.832,3.338-4.676,4.688-7.281c-0.855-2.836,3.395-3.721,5.344-2.656   c2.451-0.442,2.731,1.026,4.844,1.969c1.364,2.402,4.634-0.733,5.125,2.281c0.66,2.881,3.689,0.971,5.594,1.188   c3.384,1.084,4.066,5.078,4.188,8.155c2.136,0.609,3.182,2.722,2.406,5.095c-1.064,1.938-0.415,4.071-1.625,6.094   c-1.08,2.703-3.638-0.262-5.531-0.031c-1.809-2.116-4.431-1.52-6.719-0.625c-3.174-0.217-5.858,1.611-9,1.531   c-2.117,0.373-3.603,2.849-6.125,1.844c-2.958-1.145-4.598,2.651-7.375,1.97c-2.546-1.4-4.622,0.807-7.062,1.094   c-2.091,0.593-4.93-1.213-6.281,0.938c-1.572,1.104-6.201-1.817-5.125,1.969c2.035,2.4-4.448,2.795-0.75,3.625   c2.375,0.046,3.874,2.07,6.594,1.688c1.959,1.254,4.191-1.553,5.25,1.094c2.515-0.13,4.09,1.116,5.344,2.938   c2.805,1.734,3.927-1.771,6-2.75c1.016,0.531,1.747,3.267,4.625,2.812c2.833,2.611,6.102,4.687,8.844,7.406   c2.109,2.687,4.308,5.357,5.594,8.594c2.461,3.543,3.958,7.651,4.812,11.875c0.735,2.42-0.921,3.836-3.031,4.312   c-0.588,1.33-0.727,5.105,1.469,5.03c2.167-0.688,4.218,0.446,6.344-0.094c2.02,1.191,4.074,1.104,6.375,1.531   c2.207-1.168,4.928,0.008,6.906-1.5c2.873,0.606,3.958-2.447,5.344-4.312c2.611-3.308-4.583-1.145-2.219-3.75   c-0.425-0.317-3.197-2.905-1.375-4.594c0.476-3.591,2.862-0.597,3.094,1.375c1.286,1.828,2.633,2.238,4.062-0.062   c3.824,0.233,1.137-2.156,0.812-4.188c-1.623-1.459-3.406-3.441-2.125-5.812c1.475-1.672,0.14,3.669,2.312,4.312   c1.308,1.873,2.027,1.948,2.938,3.906c1.388,2.484,3.819-0.673,5.469,0.875c1.284,1.162,1.829,5.095,2.938,1.531   c-0.892-0.153,5.602-0.799,2.969,1.25c-1.153,0.383-1.619,0.596-1.688,0.656c0.278-0.01,2.125-0.53,3.312-1.031   c3.288-0.267,1.357-3.198,1.812-5.25c-1.327-1.717,0.114-3.782,2.094-2.312c2.253-0.692,2.705,1.576,4.125,2.906   c0.467,2.132,4.087,1.717,3.719,4.062c-3.094,1.264,3.907,1.036,1.438,3.25c0.584,2.518,3.311,4.023,5.062,5.812   c0.796,2.496,0.527,3.849,3.094,1.625c2.414,0.081,4.474,2.079,7.094,1.531c2.723,0.018,3.721-3.155,6.375-2.97   c1.819-1.277,0.848,2.539,3.219,2.97c1.637,2.103,3.965,0.977,6.219,1.125c1.438,2.533,4.829,1.84,7.312,2.188   c2.873-0.674,5.565,2.743,8,0.156c0.687,2.05,2.644,2.975,3.531,4.906c0.634,2.676,1.903,5.245,4.094,6.875   c1.091,2.225,3.378,1.698,5.25,0.78c2.576,0.339,6.548,0.886,7.312-2.375c0.907-2.868-4.953-2.732-2.5-3.594   c2.317,0.759,4.079,0.749,5.156-1.688c2.533-0.247,2.813-2.732,4.25-3.344c1.469-0.065,3.647-4.463,3.719-2.22   c-2.081,0.935-1.933,3.506-2.905,5.375c-1.085,1.774-3.049,2.652-4.625,3.312c1.895,2.347-3.167,3.348-0.906,4.438   c1.812-1.439,4.624-0.442,6.406,0.688c2.483,0.485,2.303,4.023-0.125,1.656c-1.825-1.721-4.229-0.539-6.47-0.72   c-1.575,1.934,3.071-0.241,4.406,0.345c3.495,2.264,8.359,2.896,10.656,6.688c1.389,3.191,3.697,0.221,2.531-2.031   c1.491-1.44,2.816-2.781,0.75-4.656c3.177,2.312,1.267-2.245,3.812-1.905c3.107,1.155,0.761-3.224,1.156-4.845   c-1.034-0.719-4.756-3-1.281-2.594c1.851,1.45,3.971,2.049,4.438-0.844c1.827,0.548-1.189,4.652,1.094,5   c2.465-2.477,2.219,0.946,1.875,2.938c1.939,2.974-1.762,0.73-2.938,2.845c-1.319,2.217-4.024,0.93-5.53,2.53   c-2.474,1.116-1.805,3.367-1.75,5.47c-1.671,2.607,1.954,4.119,3.719,5.312c3.064,1.312,3.931,4.871,4.812,7.812   c-0.118,2.895,0.584,6.869-2.094,8.781c-0.081,2.807,1.607,5.66,1.719,8.594c0.548,1.495,2.956,0.682,4.625,1.688   c2.8,0.382-0.147-2.583-1.405-3.375c-2.035-1.211-0.726-3.495-1.845-5.25c-1.062-2.745-0.581-6.271,0.156-9.094   c0.948-1.515-2.385-4.881,0.375-5.281c0.568,1.517,5.411,2.35,2.375,3.25c-1.212,2.221,3.423,1.361,4.812,0.938   c1.824-0.889,3.475-1.511,5.406-0.062c0.773-1.465-1.807-5.077,0.562-5.938c1.2,1.715,0.462,4.192,1.688,5.969   c3.387,2.195,0.29-3.166,1.688-2.875c1.29,1.424,3.478,2.514,2.625,4.781c1.93-1.479,2.837,1.451,4.5,0.375   c-0.568-2.265-2.556-3.991-3.812-5.845c-0.522-2.171,0.482-3.78,0.595-5.905c-0.662-1.917-2.91-3.279-2.188-5.531   c1.855,0.626,1.698,3.479,3.312,4.5c3.835-0.387-0.957,1.881,0.97,4.219c0.408,3.802,1.009,0.233,3.155,0.75   c-0.03,3.67-0.102,0.644,1.875,2.656c3.527,2.203,1.159-3.599,3.75-2.5c2.773,1.598,1.888-2.3,2.562-3.656   c1.977,0.013,4.221,1.016,6.156-0.219c2.383,1.238,4.559-0.869,2.062-2.625c1.316,0.957,4.023,0.287,4.562,0.719   c-0.263,1.756,4.147,4.188,0.53,2.75c-2.033-1.587-4.718-0.397-1.344,0.781c1.542,1.67,3.508,2.087,5.375,3   c-0.914,2.562,3.415-0.727,0.594-1.562c-0.361-1.959,3.608-0.009,1.595-3.375c-3.065-1.845,1.227-2.524,1.094,0.469   c1.87,1.499,0.628,4.022,0.125,5.781c-1.869,1.771-2.766,1.525-3.281,3.719c-2.279,0.87-0.251,3.447-2.28,4.188   c-0.387,2.278-3.681,0.322-5.406,0.594c-0.375-3.944-3.374,1.712-3.375-1.25c-1.846-4.028-0.73,3.406-2.875,0.72   c-2.867-0.771-3.266,2.312-3.969-1.406c-1.729-1.563-3.558-0.785-5.47-1.344c-3.04-0.019-1.364,4.052,0.781,3.344   c-0.849,1.547,3.628,0.94,4.281,3.125c1.996,1.3,1.502,3.879,2.655,5.625c1.931,0.678,4.256,2.055,6.22,1.562   c1.468-2.443,4.312-1.971,6.719-2.469c2.577-1.972,5.019,1.236,7.562,1.062c1.472-1.381,1.742-4.027,1.312-5.25   c1.576,0.981,5.365,2.287,5.781-0.344c-2.727-1.576-1.076-2.641,1.5-1.688c1.596,0.771,5.058-3.392,3.781-0.5   c-0.575,2.142-3.887,1.688-4.031,3.75c-1.976,1.087-2.82,2.774,0.281,1.312c2.141-2.823,6.329,0.487,8.469-2   c2.1-1.707,4.91-1.146,6.562,0.812c3.234-0.533,4.932,2.896,8,2.812c2.193,1.472,4.138-2.263,5.906-0.312   c3.884,0.339,0.767,1.542-1.469,0.594c-1.55,2.132-3.773,0.289-5.906,0.656c-2.102,1.751-3.906-0.379-6.219,0.094   c-1.993,1.923,1.47,4.13,0.03,6.125c-1.062,2.064,1.3,4.741,3,2.531c2.769-0.893,2.863,2.574,1.688,4.094   c1.189,2.808,4.232,0.021,6.031,1.656c2.892-0.377,0.612,4.792-0.656,2.188c-2.325-1.438-3.191,1.221-4.281,2.47   c0.915-2.636-2.337-2.192-3.25-4.22c-2.364,1.234-4.267,3.065-6.28,4.906c-1.002,1.487-5.235,0.907-4.345,2.969   c3.859-0.039,7.329,4.01,6.47,7.812c-1.673,3.718,2.814,2.198,1.188-0.438c-0.318-3.25,1.748,0.603,3.531,0.719   c1.912,0.993,2.35,3.124,3.406,4.75c0.178,3.794-4.564,3.271-7.062,2.625c-1.618-1.085-2.755-3.482-5.156-2.781   c-3.187,1.182,1.193,2.615,2.594,3.062c2.898,2.048,6.585,2.451,9.375,4.562c3.64,1.556,0.699-3.24,3.281-3.656   c3.571-0.053,8.441,0.699,9.625,4.72c2.144,0.9,3.517,2.982,5.844,3.438c2.84,0.029,4.067-2.736,6.22-3.812   c2.373,0.222,2.958-2.375,5.28-2.375c1.892-0.931,2.254-3.599,3-5.405c1.281-1.35,4.062-2.789,5.688-1.406   c2.598-0.393,5.229-0.191,7.844-0.25c2.679-1.265,5.797-2.521,8.688-1.125c1.216,1.782,4.354,0.872,4.781,3.094   c1.557,2.488,4.185,0.004,5.53,0.875c4.149,0.938,7.271,3.875,10,6.938c2.021,3.276,4.661,6.258,8.531,7.25   c1.073,1.16,6.21,0.679,4.562,1.906c-3.426,0.002-7.893,0.619-10.312-2.345c-1.063-3.606-5.297-2.415-7.688-4.344   c-2.199-0.786-4.554-2.454-5.28-4.562c2.789-0.044,2.448-0.508,0.03-2.125c-3.812-2.472-0.697,1.334-3.28,1.188   c-1.975-1.789-4.607-0.504-6.875-1.438c-1.435-1.112-3.182-4.087-4.875-1.562c-3.976,3.021-9.689,0.971-13.97,3.125   c-3.068,0.145-1.983,3.599-2.438,5.625c-1.782,1.916,0.124,3.778,1.156,5.469c0.799,2.905,0.531,6.625-1.094,9.25   c-2.146,1.091-5.326-0.357-6.812,2.312c-1.752,1.755-3.947,2.601-0.125,2.938c1.1,2.469,3.966,0.229,5.938,1.281   c2.329,1.135,4.778,1.917,7.47,1.562c3.019,1.843,6.98,2.204,9.25,5.155c3.461,2.563,6.04,6.229,7.344,10.312   c-0.941,1.737-3.728,1.704-4.094,4.094c-1.554,1.473-1.457,3.566-2.281,5.469c0.033,2.272,0.117,5.118-2.594,5.812   c-2.436,0.231-4.677,1.366-5.281,3.875c-1.672,1.47,0.678,4.215-2.531,4.155c-3.43,1.084-1.396,5.367-2,7.97   c-1.081,6.162,4.263,10.518,8.875,13.405c4.947,2.777,9.688,6.778,11.438,12.375c0.045,2.445,1.893,4.116,4.375,3.906   c4.693,1.156,3.536,7.311,7.219,9.656c2.998,0.7,2.896,3.854,3.969,6.094c0.743,2.161,0.769,4.586,3.781,3.969   c-2.308,2.073,0.256,4.775-0.125,7.281c0.36,3.733,1.375,7.418,2.188,11.094c0.9,3.119,4.113-0.818,2.062-2.219   c-1.53-1.637,0.641-6.128,1.312-2.375c0.541,1.833,0.795,4.131,2.655,5.156c3.952,1.509,6.621,4.979,10.375,6.781   c1.828,1.49,3.916,1.415,5.188-0.25c2.455,1.039,1.347,3.48,0.062,4.875c1.326,2.203,4.276,0.522,6.312,0.781   c3.774,0.655,8.614-0.857,11.53,2.28c3.637,2.467,3.505,7.06,4.438,10.875c-0.237,2.889,3.582,3.115,5.219,1.812   c1.229-2.191,3.611,1.028,5.345-1.156c3.203-1.512,4.777,2.587,6.905,4.156c1.347,2.725,3.97,1.542,2.345-1.188   c2.447,2.128,4.317,5.199,6.594,7.594c0.751,1.186,3.415,4.174,4.156,2.312c-1.196-2.222-0.439-4.974,0.875-6.969   c1.772-0.808,3.459-1.484,5.28-2.188c1.949,1.14,4.149,1.609,6.5,1.875c0.621,2.651,0.581,5.788,1.906,8.281   c0.062,2.538-2.186,3.286-4.188,3.781c-1.145,1.798-2.936,2.521-4.438,3.938c-2.067,0.478-4.782,3.008-2.344,4.812   c-0.464,2.573-3.624,4.182-3.031,7.155c0.981,3.695,5.02,0.74,7.406,1.625c-0.067,1.922,0.665,3.699,3.062,4.5   c3.146,1.38-1.866,3.021,0.125,4.25c2.34,0.186,3.646,1.938,3.875,4.188c1.33,1.947-0.071,5.602,2.845,6.125   c2.849,0.521,3.381,3.622,2.155,5.844c1.521,2.21-2.38,3.924-3.938,2.781c-1.632-2.287-4.146-1.533-2.281,1.125   c-0.966,2.814,1.731,3.114,3.219,4.344c0.435,2.585,1.169,3.06-0.969,4.97c1.128,1.761,2.172,3.629,2.312,5.78   c1.07,2.812-2.189,4.538-4.438,3.062c-2.534-1.481-0.655,2.786-2.312,3.594c1.366,3.747-3.971-0.973-3.219,2.75   c2.003,3.379,0.515,8.084,3.469,10.906c1.448,4.005,4.79,7.06,8.22,9.469c3.146,2.122,6.053,4.441,8.905,6.781   c-3.246-1.997-7.409-2.526-10.25-5.312c-3.709-1.841-6.801-4.819-8.094-8.844c-0.385-2.868-3.128-1.678-4.781-0.75   c-2.25-0.544-4.784-0.641-6.938,0.219c-2.986,4.123-0.378,9.72-2.25,14.281c-0.91,1.517-0.193,4.74,2.031,3.375   c1.248-2.502,5.647-1.625,6.375,0.812c2.889,5.654,10.898,4.672,14.281,9.906c1.538,2.364,4.064,3.438,6.625,4.25   c3.092,1.361,2.823,4.928,3.75,7.594c2.149,0.783,3.243,3.45,5.719,3.188c2.763-0.991,3.353,1.787,4.5,3.188   c4.371,0.938,6.197,5.125,9.219,7.844c4.841,3.315,7.045,8.956,9.781,13.906c1.237,4.732,2.836,9.375,4.188,14.03   c1.839,7.188,2.749,14.479,3.25,21.875c0.956,5.423,1.646,10.854,1.969,16.345c1.506,4.987,2.623,10.638,6.812,14.125   c3.621,4.487,10.892,2.469,14.312,7.03c0.543,1.089,2.342,4.229,1.405,4.312c-2.939-3.636-7.645-5.395-12.25-4.688   c1.274,1.53,3.133,2.464,4.47,3.906c4.118,2.865,1.104,8.042,1.688,12c0.073,2.778,1.562,6.072,0.344,8.531   c-1.147-1.742-1.57-3.946-1.969-5.969c-1.289-4.529,1.685-9.765-1.781-13.625c-4.876-3.592-10.211-7.215-13.062-12.75   c-2.44-3.257-4.027-6.979-5.062-10.938c-0.32-3.637-1.619-7.116-1.719-10.75c-0.765-3.306-0.227-6.626-0.719-9.969   c-1.591-3.812-2.662-7.839-3.47-11.875c-2.405-4.609-4.035-9.981-8.125-13.438c-2.125-2.622-5.899-3.746-7.219-7.031   c-2.77-2.856-4.361-7.128-8.375-8.438c-3.584-0.189-6.414-2.442-8.469-5.156c-1.16-1.954-3.127-3.058-4.688-4.594   c-3.443-2.663,1.82-7.021-0.845-10.062c-3.313-0.345-4.646,3.34-5.844,5.75c-1.074,3.681-4.82,6.248-4.656,10.281   c0.786,3.984-1.28,7.788-0.938,11.844c-0.984,5.896,0.214,11.816-0.25,17.72c-1.114,8.944-1.364,17.979-3.595,26.75   c-2.143,7.124-2.438,14.554-3.219,21.905c-0.1,9.525-1.842,18.879-2.688,28.345c-0.703,8.946-1.838,17.876-2.812,26.78   c-0.158,6.597-2.354,13.052-1.562,19.656c-0.642,2.151,0.067,6.225,1.562,2.375c-0.607-3.66-0.199-7.322,1.281-10.75   c0.836-2.918,2.729-5.08,4.75-7.188c1.745-2.132,2.36-4.665,2.969-7.281c2.15-1.511,4.469,1.336,6.281,2.469   c2.32,2.733,4.241,5.819,7.406,7.688c3.138,1.229-0.959,3.562,1.719,4.344c2.968,0.676,3.028,4.695,0.5,5.938   c-2.341,0.447-4.662,1.768-7.125,1.25c-2.049,1.057-3.844-0.122-5.875-0.562c-0.411-2.244-3.355-2.425-4.875-0.844   c-2.223,3.678-1.972,8.335-3.656,12.25c-1.021,3.275-4.996,5.579-4.562,9.188c3.163,6.2,0.785,13.183,0.155,19.688   c0.191,4.788-1.802,9.255-2.28,13.938c-0.627,4.906-0.943,9.81-1.188,14.75c-2.201,10.155-3.817,20.472-5.312,30.781   c-1.871,7.709-3.102,15.591-4.562,23.406c-0.864,6.024-1.065,12.215-2.938,18.094c-1.725,4.062-1.932,8.434-3.312,12.625   c0.165,3.346-0.393,6.604-1.625,9.688c-1.098,10.611-4.01,20.896-6,31.375c-1.89,4.589-1.895,10.443-6.219,13.594   c-1.561,2.343-4.104,3.618-5.812,5.688c-1.058,7.422-7.903,12.344-14.781,13.875c-3.235,1.765-7.611,0.525-11,2.625   c-1.111,6.612,2.749,6.521,4.344,6.781c2.684,2.184-0.01,6.317,3.219,7.875c2.081-2.681,4.65-1.233,7.5-2.5   c2.181,0.451,7.057,1.849,4.125,4.906c1.539,2.279,0.388,6.354,4.75,5.875c4.003,0.813,4.419-4.104,4.625-6.344   c2.35-1.008,5.362-0.396,7.719,0.405c2.242,1.669,5.155,3.622,8.031,3.25c2.897-2.032,6.064,0.331,6.781,3.375   c-0.177,3.376-0.104,7.126-0.219,10.22c-2.613,1.851-1.008,5.608-3.438,7.75c0.927,2.937-1.881,5.44-3.53,7.312   c-1.937,1.633-6.062,3.211-3.125,6.312c1.867,1.895,1.596,6.62,5.375,5.97c2.594,1.297,5.823,1.875,8.53,2.155   c3.224-1.493,0.256-5.631,1.938-8.03c-1.155-2.898,0.723-6.511,3.688-6.625c2.581-1.895,7.375-1.263,2.781,1.312   c-1.819,2.351-3.194,6.418,0.594,7.438c2.199,3.057,4.443,3.655,7.281,1.53c3.225,1.11,4.034,3.19,6.812,4.375   c3.906-1.945,4.061,4.512,5.905,3.625c2.656-2.807,4.022,0.459,6.72,1.406c1.813,3.48,6.361,0.287,8.938,3.094   c0.489,3.093,4.188,4.405,6.594,5.875c2.385,2.498,5.184-1.494,7.438,0.5c2.875,1.772,6.239,0.35,9.312,1.688   c3.512-0.4,5.396-4.169,9.156-3.5c1.083,3.237,4.365,6.138,2.469,9.812c-2.143,1.942,1.453,6.158,4.125,5.812   c3.798-2.062,3.782,2.979,6.375,4c3.187,0.686,3.991,4.329,5.969,6.281c-0.375,4.115,2.241,3.495,4.845,5.062   c-2.448,4,2.604,3.582,3.719,1.188c1.771,0.732,0.653-3.698,3.25-4.906c2.084-2.549,4.187,3.127,7.031,2.875   c1.719,1.724,5.329-1.367,7.75,0.781c2.961-1.826,3.936-5.398,6.719-6.938c1.432,5.581,3.006-4.341,3.781-1.5   c2.438,1.452,4.453,4.513,6.938,4.906c3.352-0.951,3.161,4.077,6.595,4.562c2.837,4.166,4.729-2.385,7.062-1.094   c-1.585,2.922-1.086,5.81,2.156,7.375c1.86,1.961,1.758,5.74,3.844,7.062c3.733-1.115,4.53,2.025,4.875,4.781   c2.863-0.235,5.383,2.22,8.344,1.344c0.14-4.531,3.693-1.521,6.47-2.188c2.38-2.565,4.679-3.116,7.53-2.25   c2.562-1.304,5.771-2.152,7.406-4.188c3.102-0.134,5.287,2.675,8,3.344c4.764-1.385,3.055,3.472,4.938,5.656   c1.666,3.591,5.659,1.427,6.344-1.562c-1.505-2.599,4.001-3.886,6.281-4.5c1.581,1.921,2.748,2.905,3.594,5.062   c2.156-0.158,5.463,1.366,8.094-0.156c1.715-3.229,5.066,2.75,7.062-1.062c2.305-0.807,5.362,0.984,8.094,0.969   c2.001-3.106,3.147-0.228,6.438,0.375c2.578-1.566,5.654,2.396,5.469-2.531c0.451-3.338-0.648-6.896-3.344-8.906   c-2.395-0.461,3.581-3.397-0.375-5.219c2.143-1.608,2.678-4.034,2.344-7.312c-1.713-3.266,2.428-5.084,4.625-6.03   c3.573-2.547,4.629,3.895,8.156,2.938c2.406,0.896,5.906-1.79,7.25,1.47c3.088,0.393,4.995,1.678,7.812,3.375   c2.92-0.115,4.508,5.916,7.188,3.562c2.229-3.809,4.702,0.946,6.781,1.438c3.107-1.112,5.062,0.807,8.031,1.344   c3.359-2.389,5.166,1.035,7.75,2.562c3.35,1.773,0.574,5.624,3.406,7.75c2.127,3.159,4.473,2.212,7,0.812   c2.816-0.783,4.452-1.076,7.53,0.53c2.462-0.574,6.107,0.844,8.062-0.594c5.145-0.599,2.355,3.188,4.53,5.031   c3.838-0.854,3.531,3.328,4.97,5.5c3.165,2.3,1.434,7.048,4,9.469c0.515,3.003,6.712,1.926,5.219-1.438   c-1.945-1.56,1.213-8.247,3.062-5.062c3.021,1.578,6.938-4.141,9.906-0.281c0.464,3.453,4.273,3.382,6.688,4.312   c2.767-1.041,4.79,1.625,7.78-0.125c1.959,1.162,7.408,1.083,5.375,4c-2.539,3.024,3.121,3.672,5.22,3.938   c3.471,3.332-3.677,1.204-4.281,4.095c-0.681,2.334-2.181,5.146-2.312,7.969c0.039,2.026,0.707,5.294,3.5,4.031   c2.652,1.715,5.742,0.707,8.78,1.312c2.984,0.606,4,4.354,7.095,4.906c1.436,2.925,4.698,2.99,6.969,2.062   c2.081-0.188,2.932,3.334,3.625,5.812c0.408,2.856,0.672,6.402,2.75,8.719c2.223,1.557,4.537,4.855,7.344,2.47   c2.023,0.746,5.771-0.83,6.969-2c0.152-2.546,4.619-3.047,4.375-6.875c1.113-2.559,4.883-3.656,7.656-2.938   c3.096,1.965,6.328-1.31,9.375-2.5c2.544,0.655,5.111,2.259,7.656,2.531c3.056,0.858,3.965,2.532,6.469,4.062   c2.67,0.535,5.03,2.462,8.062,1.938c-0.274,2.601,3.229,4.94,4.688,7.03c1.489,2.362,4.979,1.567,7.156,3.5   c3.822,1.222,1.944-5.837,6.156-4.75c2.027,1.928,5.202,2.457,8.219,2.625c2.44,1.136,7.684,1.509,3.938-2.155   c-1.263-2.703-3.488-5.763,0.219-5.938c-0.354-3.72,4.51-2.018,5.812-5.062c2.461-1.354,5.471,0.061,7.969,1.188   c2.879-1.418,4.065-3.971,6.938-5.062c0.5-3.049,6.686-4.274,5.53-3.688c2.625,0.87,6.423,2.099,6.625-1.75   c2.19-5.104,4.644,1.949,6.75,0.031c2.036-2.766,4.423,1.058,7.125-1.031c0.707,2.381,2.464,5.412,4.97,6.625   c1.856,3.968,4.846-0.668,7.594,0.47c1.481,1.162,3.039,0.052,4.781-0.125c0.063-0.508,0.08-0.854,0-1.375   c-2.068-3.466-3.134-7.686-6.656-10.031c0.094-2.313-1.298-4.417-3.531-5.156c-3.989-0.754-4.652-5.167-5.125-8.5   c0.108-4.002-1.357-7.791-1.03-11.781c0.154-1.267-0.406-5.894-2.095-3.844c-2.217-0.175-3.599-3.76-2.155-5.594   c2.56-2.002,2.145,2.565,3.625,3.125c1.553-2.562,0.467-5.885,1.03-8.75c-0.165-4.488,1.69-9.701-0.562-14   c-1.946-2.418-4.923-1.525-7.531-2.062c-2.792-0.56-0.766-4.165-3.031-5.031c-0.458-2.389,2.629-3.604,4.062-5.155   c3.119-1.472,1.733-5.793,2.938-8.281c1.678,0.854,3.581,1.088,5.438,1.5c0.54-1.604,0.475-4.343-1.125-5.719   c-3.235-0.45-5.745-3.647-4.5-6.875c-0.326-2.156,4.032-4.083,3.438-1.25c-1.291,1.48-3.29,5.463-0.188,5.905   c3.372-2.743,3.528-7.762,3.875-11.812c-0.406-2.688,2.151-3.988,3.03-6.094c0.743-2.166,0.842-5.066-2.094-3.625   c-3.285-0.691-2.511-4.48-2.406-6.938c-1.492-1.887-0.043-4.091,2.22-3.938c2.337-0.811,4.646,1.965,1.594,2.875   c-2.603,0.284-1.738,3.086,0.094,3.844c0.061,3.15,3.381,1.453,3.375-0.875c0.099-2.379,2.325-2.613,2.875-5.156   c2.834-3.786,5.259-7.849,7.5-12.031c1.542-1.4,1.707-3.887,3.281-5.062c2.709,1.072,3.308-2.232,4.969-3.531   c3.788-1.521,6.911-4.21,9.625-7.155c2.218-3.239,6.345-3.319,9.72-4.188c1.949,0.544,3.954,1.344,6.188,1.469   c2.9,1.423,3.088-2.422,4.219-4.094c0.944-3.074,3.958-4.583,5.312-7.312c2.731-0.981,3.006-4.059,4.875-5.938   c2.998-2.183,6.454-4.201,10.312-4.312c2.021-1.406,2.547-4.424,5.438-4.562c1.952-1.462,3.978-2.844,5.969-4.281   c3.304-1.847,5.183-5.184,8.094-7.438c2.338-3.27,5.911-5.107,8.625-7.938c1.574-0.577,3.451-4.564,0.562-2.78   c-1.688,2.269-5.396,2.266-6.125,5.25c-1.705,2.668-5.103,3.813-6.5,6.78c-4.512,3.565-8.94,9.148-15.312,8.625   c0.864-2.217,3.492-1.652,5.156-2.625c2.434-2.43,7.651-2.946,7.594-7.219c0.721-1.728,0.751-4.984,3.094-5.188   c2.351,0.637,4.233-0.836,5.188-2.844c1.493-1.458,1.224-4.529,4.062-3.906c1.377-1.733,3.627-1.305,5.47-2.219   c2.075-0.089,3.155-1.572,4.75-2.5c1.951-0.617,3.104-2.783,5.5-1.844c1.559-1.648,3.185-0.904,5.155-1.375   c1.183-1.443,4.952-2.004,2.812,0.625c0.509,2.383-2.094,3.441-4.062,3c-2.759,1.125-6.003,1.01-8.812,2.25   c-1.05,0.093-3.493,1.307-4.156,1.594c4.934-0.495,9.996-2.477,15.062-1.531c3.887,0.143,7.256,2.5,8.844,6.031   c0.256,3.673-0.419,8.572,3.656,10.438c2.843,2.114,6.377,2.276,9.75,2.219c5.797-0.119,11.493,0.902,17,2.719   c1.9-0.642,4.151,0.497,6.03-0.625c4.565-1.071,9.756-1.545,14.188,0.47c2.797,1.018,7.646,2.657,6.625,6.405   c-0.493,2.718-3.845,4.397-3.344,7.25c2.03,4.225,7.186,3.458,11.062,3.781c6.026,0.022,12.048,0.254,18.062,0.688   c3.713,0.807,2.81-4.771,0.219-5.531c-3.82-2.676-9.395-4.701-9.812-10.094c0.267-3.481,1.591-6.852,0.688-10.375   c0.954-5.442-3.483-9.625-4.531-14.595c2.304,0.779,3.128,3.612,4.345,5.531c3.885,5.428,2.199,12.272,1.28,18.344   c-1.032,3.849,2.929,5.896,5.531,7.72c3.279,1.392,5.641,4.481,8.844,5.594c2.707,1.938,2.479-1.418,1.656-3.062   c-2.665-0.033-3.598-2.728-1.344-4.344c1.69-1.1,3.006-1.811,5.094-1.875c1.381-1.561,3.458-2.547,5.438-1.125   c1.13,2.149,4.273-0.326,4.438,2.344c0.253,3.141,3.232,0.279,4.719,0.656c2.045,0.031,4.061-1.23,5.656-2.406   c1.181-2.254,0.938-5.549,0-7.906c-0.718-2.718-4.114-1.12-5.188-3.219c0.635-2.192-1.842-3.849-0.345-5.875   c2.345-1.377,0.06-4.164,1.281-6.094c2.033-1.357,2.021,2.778,3.938,3.125c1.951-0.284,3.649,0.48,5.75,0.344   c2.85-0.335,3.753,2.273,1.562,3.844c0.225,3.363,4.055,4.014,5.625,6.595c3.248,0.86,5.147-3.828,8.438-3.531   c1.592,1.498,0.392,4.312,0.844,6.125c-2.163,1.098-4.396,2.623-4.969,5.156c-1.773,1.386-4.053,1.95-5.625,3.625   c-2.48-1.143-5,0.391-7.531-0.156c-2.551-0.974-4.836,0.433-6.75,1.875c-3.014,0.64-3.896,4.129-2.469,6.625   c1.95,1.099,1.207,4.383,4,4.562c1.791,1.438,4.288,0.487,6.344,1.595c1.801-1.218,3.938-0.609,5.844-0.47   c2.061-0.344,3.901,1.289,5.625-0.688c2.7,1.521,5.869,0.671,8.469-0.656c1.687-1.471,3.664-2.218,5.719-3   c3.675-2.208,6.729,2.178,7.906,5.156c0.061,2.018,0.49,4.439-0.438,6.219c-2.439,1.832,1.039,3.101,1.969,4.469   c0.587,3.276-3.383,4.971-2.844,8.312c1.788,3.032,5.85,2.05,8.781,2.625c1.454-2.335,4.245,2.249,5.25-0.75   c2.259,0.73,4.203,2.983,6.78,2.25c1.253-0.964,3.437-3.663,4.72-1.125c0.007,3.005,2.869,4.421,5.125,5.719   c2.307,2.312,2.946-0.311,4.375-1.625c2.296,0.228,4.769-0.104,7.094,0.469c2.849,0.492,1.349,3.195,1.156,4.845   c1.308,1.413,3.732,0.655,4.594,3.062c1.803,2.372,5.086-1.598,6.406,0.938c-1.212,2.815,0.885,3.65,3.375,3.25   c3.158,1.303-0.356,2.558-1.97,2.844c-2.33,0.358-2.923,5.331-0.062,4.5c3.264-0.809,3.391,3.682,6,4.312   c2.264,0.729,5.177,0.793,4.844-2.438c1.245-1.1,2.525-3.955,4.531-2.344c2.137,2.003,4.851-1.505,1.188-1.344   c-2.115-0.529-0.709-4.338-3.875-3.625c-2.613-1.06,1.557-2.519,2.812-2.595c0.895-1.522,5.161-1.458,3.438,0.781   c-1.529,3.334,1.861,0.368,3.344,1.25c2.15,2.122,4.976-0.946,7.188,0.375c0.569,3.229,4.021,3.223,6.469,1.719   c2.557-0.214,6.858,0.602,6.531,4.031c0.788,2.543-1.153,3.985-3.531,3.531c-3.16-0.729-1.989,3.226,0.595,2.03   c1.973-0.189,4.107-0.857,6.094-0.125c1.502,1.75,5.789-1.041,2.5-1.75c-3.333,0.019-0.313-3.612-1.25-5.5   c-0.51-3.535,2.266-7.965,6.25-6.562c2.597,1.275,4.695-2.015,7.125-1.094c1.942,1.67,4.564,1.465,6.656,2.75   c1.284,1.218-0.038,4.59,2.812,4.344c1.485-0.031,5,1.785,3.938-1.594c-1.479-1.693-0.484-3.817-1.188-5.75   c0.068-2.798,3.438-2.337,4.438-4.5c1.729-1.084,4.352,1.323,5.155-1.625c2.238-0.103,4.562,0.332,6.845-0.125   c1.848-0.339,3.986-1.623,4.375-3.47c0.786-1.709,3.337-1.916,4.875-2.312c2.277,0.129,5.28,0.953,4.094,3.906   c1.271,2.312,2.633,1.864,3.906,0.25c3.073,0.504-0.064-3.568,2.219-4.656c0.996-2.076,4.396-0.832,4.906-2.812   c-1.138-1.453-4.341-2.4-2.031-4.75c-0.229-2.972,4.869-2.698,3.75-6c-1.106-2.563-3.793-1.062-5.688-1.031   c-2.696-1.612-5.252,1.757-8.125,0.312c-1.391-1.926,1.527-3.163,3.22-3.188c1.796-1.093,2.895-2.736,5.375-1.97   c3.59-0.696-0.061-4.979,2.438-6.438c1.627-2.035,5.571-1.075,5.75-4.219c0.271-2.283,1.438-4.334,1.5-6.719   c0.011-2.301,0.913-6.935,4.188-5.22c1.264,1.463,2.627,2.785,4.75,1.906c2.005-1.038,4.872,0.892,6.312-0.875   c-0.101-3.653,4.277,0.957,4.938-2.062c-0.733-2.948,3.229-2.013,3.75-4.345c0.156-2.252,1.284-4.03,2.438-5.844   c0.799-1.741,3.284-3.147,0.969-5c-0.198-2.38,2.3-4.392,4.562-4.938c1.665-1.297,3.577-2.418,5.562-1.094   c3.295-0.309,5.158-3.983,8.688-3.656c2.98-1.615,1.841,4.17,4.375,2.156c1.399-5.008-1.407-10.678,1.469-15.406   c0.718-2.97,3.711-3.864,6.438-3.75c4.004,0.479,3.237-5.155,6.438-6.125c1.99-0.859,4.119,0.422,6.188-0.594   c1.469,0.356,5.111-2.312,3.845,1.031c-1.58,3.21,3.594,1.316,2.562-0.812c-2.062-1.488-0.394-3.517,1.625-3.719   c1.275,0.508,2.199,0.51,3.031,0.219c0.416-0.146,0.977-0.498,1.375-0.78c-0.953-2.541-0.763-4.683,1.406-6.312   c1.21-2.213,3.955-2.953,4.469,0.188l0.125,0.5c2.439,0.502,5.762,0.67,4.875-2.406c-0.416-2.25,2.328-2.814,3.719-3.75   c1.264-0.028,2.188,0.724,3,1.281c-0.33-3.141-2.576-5.275-2.906-8.5c-1.11-3.6-4.006-8.977,0.5-11.406   c2.005-1.607,5.481-2.517,5-5.75c1.429-2.327,0.421-6.774,4.22-6.938c3.301-0.285,3.651-4.465,6.5-5.656   c1.98-1.548,4.196-3.344,3.062-6.188c-1.097-3.508,3.254-3.748,4.344-6c1.433-2.562,3.414-6.903-0.125-8.78   c-2.939-1.859-6.227-5.885-3.405-9.125c-2.442-1.93,3.045-4.972-1-5.345c-2.625-1.793-3.997,0.017-5.595,1.156   c0.021,2.885-1.532,3.47-4.188,2.719c-2.579-1.069-3.544,1.665-5.625,1.72c-4.508-0.605-7.835,4.735-12.469,3.062   c-1.332,1.994-3.501,3.521-5.75,1.5c-2.174-1.831-6.311,1.978-6.906-2.125c-0.614-4.76-6.068-1.601-8.969-2.938   c-2.227-1.602-3.503-6.225-6.781-4.594c-3.214-0.84-3.531-5.356-6.906-6c-1.443-3.263-4.452,2.74-5.5-1.219   c-1.581-2.042-4.615-2.145-6.375-4.156c-2.55-2.347-5.469,2.033-7.719-0.281c-3.729-0.873-2.344-5.832-4.375-8.312   c-1.326-2.104-5.604-2.2-4.375-5.562c-0.02-3.252-4.686-4.127-4.5-7.5c-2.408-0.892-3.447-2.363-2.188-4.72   c1.655-2.143,0.076-4.36,0.5-6.562c1.296-2.246,4.84-1.426,6.094-3.125c-1.454-1.938-4.276-2.836-4.469-5.438   c-3.666-1.635-5.58-5.803-5.906-9.594c-0.354-2.292,0.281-4.342,2.406-5.5c0.498-3.256,5.053-1.707,5.375-4.938   c2.138-1.119,2.829-2.823,2.844-5.405c0.745-2.535,2.51-2.97,3.031-4.312c-2.027-2.515-1.785-5.809,0.5-8.03   c1.962-3.937,6.726-4.432,10.28-2.438c2.929,1.625,3.815-0.236,2.375-2.75c0.81-4.438-5.787-4.808-5.125-9.312   c0.661-2.964,0.618-6.584-1.969-8.595c0.474-1.764,4.866-4.155,1.656-5.375c-1.631-1.181-1.61-4.11-4.438-4.094   c-2.609-1.549-6.324-4.125-8.75-0.906c-3.036,1.102-6.536-0.489-9.219-1.875c-2.426-2.425-4.875-4.853-8.281-5.75   c-1.175-2.19-4.373-1.923-4.625-4.53c1.747-2.293-1.305-3.859,0.438-5.531c2.023-2.553-0.101-5.885-0.875-8.344   c1.358-1.952,0.938-4.199-1.5-4.875c-2.775-1.474-7.612,1.379-8.812-2.781c-0.803-2.637,1.461-6.705-2.25-7.75   c-0.164-2.038-3.232-3.466-2.03-5.156c1.354-2.9,5.685-1.676,6.53-5c2.207-1.463,4.521-1.252,6.938-0.719   c2.072-1.125,3.51-5.605,6.281-3c2.096,1.89,5.822,0.589,6.719,4c1.642,2.223,4.283,0.171,6.375,0.125   c4.192-1.545-1.906-4.053,0.875-5.688c2.154,0.002,4.188-0.614,6.188-1.219c1.085-2.128,2.112-3.397,2.594-5.562   c0.505-1.546,4.154-1.621,5.906-2.625c2.586,0.901,4.185-2.232,6.344-2c0.88,3.041,2.746,3.026,3.72-0.031   c0.917-1.82,2.353-5.372,4.905-3.625c2.428-4.662-1.229-9.309-1.905-13.875c0.705-2.508,4.196-0.676,2.938-4.531   c2.378-1.553,3.593-3.208,3.875-6.062c0.888-1.692,4.189-5.487,0.406-5.625c-1.927-0.787-2.862-2.938-5.375-3   c-3.417-1.702-2.238-6.873-5.594-8.905c-1.585-1.089-5.172,0.457-4.375-2.845c0.054-2.048-4.037-1.258-5.375-2.938   c-2.156-3.203-2.938-7.557-2-11.344c-1.365-1.956-3.071-3.701-1.75-6.344c-0.534-2.229,4.29-4.997,0.719-6.188   c-1.562-2.172-3.339-3.482-6.062-2.281c-2.15,0.419-3.509-2.479-3.345-4.312c-3.083-0.939-7.357-0.232-8.719-4.062   c-1.258-2.283-4.281-3.672-3.656-6.812c-0.553-4.644-1.769-9.367-0.25-14.031c-0.374-3.286,3.453-5.64,5.906-3.125   c3.067,1.454-0.205-5.147,3.469-3.562c4.384,2.672,8.978-1.263,12.845-3.125c2.731-2.402,3.019-6.337,4.594-9.281   c3.861-1.401,1.077-2.647,1.562-5.625c1.857-3.062-5.009-2.739-2.25-5.344c0.604-3.431-3.624-4.657-4.844-7.47   c-1.853-2.538-5.146-4.263-5.594-7.625c-3.104-0.784-4.777,4.376-7.906,2.125c-1.617-2.496,3.409-5.417-0.156-7   c0.386-1.896,3.3-3.066,2.625-5.719c-1.578-1.828-5.155-0.559-6.938-2.75c-2.361,0.359-6.557,0.069-6.095-3.188   c-1.053-2.991,2.672-5.307,1.625-8.53c-1.437-5.36,4.76-8.24,6.125-12.688c0.158-3.596-3.297-5.322-4.438-8.438   c-2.058-2.169-5.012-4.518-5.344-7.594c1.471-2.104,5.51-2.954,4.562-6.345c1.255-2.834,1.037-7.527-2.905-7.75   c-5.463-2.179-11.058-3.945-16.906-4.78c-3.195-0.959-6.137,1.985-9.469,0.75c-4.901-0.694-10.514-0.377-13.845,3.812   c-3.065,3.562-7.561,5.599-12.25,5.188c-4.211-0.324-8.979,1.253-10.53,5.53c-2.614,2.058-5.647,3.974-6.345,7.531   c-1.771,2.362-0.239,3.819,2.156,4.375c1.471,1.812-2.264,3.138-0.125,5.312c0.762,1.676,2.518,6.006,4.094,2.688   c1.92-1.274,2.99,2.444,3.062,3.906c-3.05,2.855-7.066,5.005-10.562,7.405c-0.688,2.214-4.839,1.966-3.844,5.031   c-0.062,2.556-3.604,3.016-4.938,4.938c-2.437,0.841-5.961,2.147-7.78-0.47c-2.182-0.17-4.295,0.349-5.781,1.97   c-2.581-0.524-5.389-1.33-7.75,0.53c-3.458,1.671-0.163-1.306,0.469-2.905c1.425-1.841,2.895-3.321,0.438-5.031   c-1.629-1.369-4.84-3.679-2.062-5.75c3.008-3.084,7.369-3.986,10.906-6.094c2.087,0.887,3.574,0.114,5.188-0.5   c3.266-0.192,1.845-4.238,0.531-5.938c-1.197-2.594,2.637-4.069,2-6.406c1.769-2.819,2.939-6.087,4.656-9   c0.044-3.909-4.424-5.008-6.531-7.625c-1.401-1.239-5.956-2.154-3.438-4.125c3.26-2.354-2.828-5.997,0.656-8.594   c2.334-2.457,4.094-5.218,5-8.5c0.832-2.617,3.604-3.451,4.844-5.688c-1.45-1.882-5.115-3.698-4.156-6.375   c4.974-3.42,8.797-8.142,13.406-12c3.452-2.681,5.583-7.141,10.25-8.125c2.688-1.216,6.367-1.932,7.219-5.031   c2.77-0.041,1.539-3.865,4.5-3.531c3.218-0.274,4.267-3.508,6.062-5.625c0.562-2.59-5.043-3.423-2.281-6.406   c0.355-2.511,0.949-4.982,2.812-6.905c1.606-4.782-0.569-9.646-3.405-13.438c1.711-2.771,4.426-5.312,6.875-7.625   c2.179-0.305,4.578-0.024,6.75-1.219c3.742-0.692,6.729-3.132,10.5-3.75c3.389-2.173,4.469-7.607,9.25-7.594   c2.797-1.079,1.914-4.111-0.188-5.344c0.614-0.683,0.445-3.763,2.438-4.72c1.895-0.343,5.327-0.718,3.625-3.5   c0.444-2.352,4.014-1.729,5.594-3.312c3.168-1.187,4.524-4.621,7.594-5.844c-2.193-1.521-0.584-3.049,1.688-4.438   c2.116-2.901,4.852-5.551,8.062-7.219c1.598-0.839,3.16-2.806,3.531-4.47c-0.719-2.046,0.401-4.496-0.969-6.562   c0.34-2.326,4.046-0.84,5.594-2.719c2.187,0.089,3.969-1.796,2.656-3.875c1.473-1.771,4.866-0.165,5.594-3.095   c0.725-1.536-0.555-4.229-1.969-4.655c-1.646-1.756-3.598-1.606-5.595-0.095c-4.164,1.062-8.446,0.634-12.625,0.938   c-3.169,1.722-1.907-2.994-0.344-3.969c3.086,0.04,1.716-5.162,5.094-4.22c2.855-0.817-1.266-6.242,2.688-5.655   c2.428,0.562,3.1-2.893,5.719-2.375c3.015-2.242-1.458-4.621-0.969-7.188c-1.588-2.998,2.692-1.495,3.656-3.5   c1.67-0.563,3.407,2.015,5.469,1.812c3.604,2.442,7.49-3.616,10.906-0.188c1.721,2.167,4.841-0.977,6.094,0.845   c-1.587,2.041-2.549,4.256-2.375,6.905c-1.199,2.817,3.502,3.079,5.312,2.812c3.086-0.85,1.359,5.103,4.22,2.875   c1.67-1.623,3.951-1.405,5.75-2.312c1.795-0.9,4.647-0.698,6.5,0.281c2.338,0.606,4.51,0.51,6.25-1.156   c2.668-0.369,3.049-3.989,5.812-4.312c2.512-2.368-1.281-2.953-2.281-4.406c0.17-3.427,3.884-1.412,5.125,0.188   c2.652,0.494,5.799-3.025,3.125-5.188c-1.366-3.127,4.54,0.65,3.75-3.156c0.618-2.746-5.6-0.651-2.375-3.469   c1.478-2.188,6.243-1.086,5.75-4.406c1.218-2.605,6.041,0.036,4.938-3.812c0.036-2.771-3.25-4.257-2.844-7.22   c-2.161-2.897-6.668-4.382-6.656-8.562c-0.758-2.438-0.713-5.085,1.844-6.375c2.926-2.187,2.104-5.87,0.469-8.594   c-1.955-4.737,0.422-10.164,3.562-13.845c1.432-2.872-3.328-6.763,0.75-8.5c3.544-1.605,1.383-5.361,1.938-8.188   c2.961-3.148,6.882-7.121,4.844-11.875c-1.698-4.04-7.25-5.911-6.688-10.875c0.044-3.153,0.26-6.422,1-9.531   c-0.551-3.662,4.533-4.504,3.656-8.125c0.776-3.944,3.693-7.117,5.156-10.875c1.743-2.771,5.402-4.268,5.625-8   c1.277-3.624-1.411-8.95,2.969-10.938c2.41-1.303,6.316-3.268,4.438-6.656c-0.873-4.181-2.346-8.454-0.5-12.625   c0.631-4.018,4.83-7.029,3.344-11.375c-0.84-3.948,5.644-3.028,4.875-7.062c-0.218-4.325-0.83-8.673-0.905-12.969   c1.989-3.107,2.377-6.981,4.405-9.969c4.226-1.95,7.687-4.94,10.812-8.344c3.33-2.144,6.092-6.085,5.188-10.219   c1.142-3.813,7.389,1.392,7.595-3.531c-1.022-4.214,4.116-3.673,6.594-4.844c5.429-3.002,3.572-10.179,6.75-14.75   c1.088-5.328,6.11-8.51,7.625-13.72c1.551-1.388,7.632-4.027,2.344-3.875c-2.252,1.09-4.381-1.414-6.875-1.03   c-3.19-0.377-5.991-2.369-9.344-2.281c-2.787-1.721-4.747-4.689-8.188-5.469c-2.141-1.548-5.731-0.289-6.655-3.281   c-2.248-2.304-4.483-2.553-6.625-0.125c-2.74-2.666-5.316,1.709-7.875-0.312c-2.97,0.38-5.143-4.978-7.438-2.594   c-1.996,1.026-5.183,3.127-7,1.156c-2.406-1.03-5.218-0.321-7.562,0.812c-3.429,0.43-5.074-2.173-6.062-4.875   c-2.159-2.601-4.756-1.776-7.594-1.625c-4.625-0.701-4.164-6.729-7.812-8.312c-2.385-2.64-0.994-2.735-0.531-5.156   c-1.161-3.073-3.832-2.249-6.5-2c-3.047,0.158-0.896-3.911-4.938-2.531c-3.502-0.041-6.194,1.54-6.094,5.219   c-0.443,2.446-4.877,0.111-6.312,2.595c-1.925,3.465-2.562,4.229-5.845,2.812c-2.337-2.566-5.826-0.933-8.125,0.5   c-1.596-0.16-3.646-3.985-6.25-1c-1.46-2.382-5.155-2.391-5.53-4.125c-2.741-4.066-1.887,3.193-3.562,3.562   c-0.706,1.892-4.732,3.872-5.375,0.562c-0.202-4.062-2.396-7.774-1.25-11.905c-1.938,0.165-4.575-1.839-6.719-2.845   c-3.591,1.297-3.921-4.687-7.281-3.312c-2.182,2.926-5.015,1.468-7.469,0.188c-3.918,1.174-0.881,4.859,0.219,7.094   c-0.672,1.739-2.234,5.947-5.312,4.625c-2.857-0.955-5.252-2.431-8.125-1.905c-2.896,0.726-5.36-2.106-4.719-4.812   c2.869-0.771,2.539-6.632-0.812-4.905c-3.608,2.371-2.013-3.436-3.125-5.312c-1.536-1.666-4.829-1.283-3.406-4.688   c-1.075-2.11-3.396-4.388-5.75-5.845c-3.26-0.588-1.836-5.062-4.344-5.03c-3.674-3.412,0.29-4.022,2.125-5.095   c-1.539-2.121-1.757-4.971-5.156-5.781c-4.643-1.609,0.37-4.352-2.094-6.625c-2.624-1.104-4.256-3.386-6.938-4.219   c-1.59-2.974-4.837-1.042-6.844-3.594c-2.729-2.788-3.877,2.522-7.031,1.406c-3.189,1.376-5.82-2.108-8.969-2.531   c-1.125-2.306-3.482-3.077-5.75-4.688c-3.729-2.568-8.157,0.725-12.25-0.406c-1.133,1.452-0.388,2.608-3.719,2.906   c-1.912-0.245-0.438,4.816-3.875,3.875c-0.396,4.868-2.76,0.62-5.156,0.812c-1.776,2.873-3.411,2.858-6.656,2.031   c-3.339-0.03-3.563,1.065-4.594-2.656c0.675-3.205-1.721-5-4.625-5.594c-3.226-0.384-6.635-0.304-9.75-0.594   c-2.715-2.204-2.262-4.28-3.719-6.688c-2.529,0.284-2.775-2.379-5.812-2.375c-3.318-4.176-3.675,2.357-6.125,2.594   c-2.615-0.343-3.73-0.232-5.5-2.219c-3.436-1.929-8.019,0.22-8.031,4.344c-0.25,3.829-2.806,1.042-4.188-0.406   c-2.283-0.783-5.934-1.749-6.625,1.531c-1.85,2.596-5.707,0.673-8.094,2.5c-2.183-1.351-1.719-3.658-0.219-5.375   c0.617-2.317-3.718-3.345-1.845-5.562c-1.021-1.791-3.326-3.245-2.812-5.875c-1.46-2.909-4.982-4.621-8.031-5.562   c-2.486-2.354-3.117-0.338-4.969,1.219c-2.743,1.967-4.764-2.157-3.125-3.906c0.805-1.765,4.081-3.135,1.094-4.812   c-2.271-1.562-3.868-3.635-5.594-5.719c-2.796-0.977-4.505,3.821-7.469,1.469c-1.555-2.051-5.775,0.655-6.281-2.562   c0.716-3.678-2.325-1.2-3.875-1.906c-1.897-2.331-0.922-5.86-3.219-8.094c-1.407-3.755-5.809,0.541-7.438-2.625   c-3.453,0.279-5.533-2.748-7.094-5.312c-2.14-0.162-4.422-0.219-6.125,1.156c-2.783,2.718-6.429,0.387-9.5-0.188   c-3.163,2.073-1.158-2.411-0.406-3.844c0.507-2.595-0.912-5.455-2.312-7.688c0.411-2.059,2.344-3.683,2.844-5.938   c2.539-3.024-0.185-6.309-2.531-8.312c0.095-3.831-2.066-1.142-4.094-2.375c-3.51-0.537-3.779-6.063-0.656-7.281   c2.785-2.485,0.061-7.24,3.438-9.594c0.174-1.507-2.438-4.46,0.406-5.438c1.477-1.311-0.289-6.184,2.906-4.656   c1.55,3.009,1.342-2.973,1.25-3.562c-0.002,0.027-0.03,0.039-0.031,0.094c-1.036-2.213,3.717-3.338,1.031-5.062   c-0.115-2.96-3.58-1.353-5.469-0.938c-2.157,0.574-0.475-5.403-3.781-2.875c-1.098,3.032-3.84,4.299-6.531,5.531   c-1.135,2.173-1.566,4.937-4.531,5.25c-3.021,1.159-5.602,4.675-4.625,7.781c1.979,3.01-0.646,6.822-1.062,10.062   c-0.285,3.679-5.116,3.26-7.75,4.031c-2.877-0.232-5.01,1.446-7.094,3.031c-3.575-0.135-4.593,4.789-8.312,4.5   c-2.936,0.709-5.927,2.33-8.78,0.25c-2.199-1.235-4.604-0.077-6.75-1.594c-2.257,0.595-4.115-0.471-5.562-2.094   c-3.32-1.651-7.138,0.126-10.719,0.125c-2.56,0.516-5.983,1.764-7.25-1.438c-1.139-2.461-4.598-0.171-5.344-1.75   c1.219-1.835,2.25-3.534-0.156-5.156c-1.29-2.204,0.805-4.961,2.375-6.312c2.938,0.848,3.378-2.155,5.344-3.188   c2.596-0.03,3.659-2.929,1.5-4.5c-1.97-1.899-3.162-4.351-2.219-7c0.346-2.741-4.135-2.808-5.469-1.219   c-3.555,0.822-2.134-2.233-2.22-4.219c2.724-0.792,1.304-3.597,2.438-5.594c1.451-1.649-1.705-5.062,1.312-5.344   c1.379-2.04,2.359-4.763,5.156-5.438c3.211-2.054-0.594-5.872-3.344-5.75c-0.823-2.952-4.296-1.529-2.345,1.062   c1.228,2.543-4.185,2.921-3.28-0.094c-2.496-1.307-0.881-5-3.72-6.25c-1.307-2.171-3.782-1.333-4.875-3.594   c-2.684-1.062-3.226-3.785-4.594-5.969c-2.909,1.06-5.744,2.53-8.906,2.312c-2.711,1.262-5.721,3.298-8.812,2.25   c-0.764-2.413-3.779-1.83-5.094-3.844c-2.195-0.984-3.892,1.37-6.095-0.062c-2.483,0.387-5.127-0.852-7.312,0.969   c-2.135,1.068-1.901,4.322-2.562,6.438c-2.873-2.753-1.627,3.442-4.531,0c-2.26-3.132-2.881-7.108-4.125-10.562   c1.457-2.38,2.406-5.12,1.188-7.875c-0.271-2.458,0.566-5.248-1.344-7.281c-0.577-2.229-3.638-2.809-4.031-5.344   c-1.007-1.513-3.417-3.979-4.938-1.719c-2.86-1.958-6.364-1.377-9.281,0.219c-3.18-0.297-1.152-4.05,0.125-5.25   c-0.896-1.161-4.878-3.267-5.906-1.344c-0.863,2.446-2.89,3.438-5.344,3.344c-2.782,0.196-5.111,2.231-7.844,2.281   c-1.683-2.27-4.703-2.413-6.781-4.188c-2.34-0.399-2.976-2.964-4.438-4.25c-0.297-3.189,0.618-6.408,0.344-9.625   c-0.272-2.676-3.323-3.973-2.906-6.719c-0.568-2.471-2.438-4.96-1.75-7.469c2.966-1.083,1.289-2.783,0.531-4.656   c1.043-2.691-2.312-3.826-4.344-3.281c-1.916-1.272-2.179-3.43-3.125-5.188c-0.851-2.648-2.768-4.615-3.47-7.375   c-1.63-1.816-5.493-1.813-6.905-0.906c-1.261,2.241-4.239,2.77-6.22,1.469c-2.436,0.056-3.715,2.646-6.312,2.094   c-1.931,0.512-3.652,2.904-5.469,2.531c-1.524-1.262-4.365,1.844-2.625,3.156c-2.166,1.181-0.883,4.104-3.281,5.188   c-1.369,3.669-2.59,1.267-4.281-0.406c-2.595,0.627-3.67-2.019-5.594-2.75c-3.278,1.631-8.185-0.557-7.156-4.656   c-2.239-1.042-3.253-2.565-3.562-4.906c-2.262-0.621-3.686-2.274-4.875-4.094c1.531-3.488-3.22-3.433-5.375-3.688   c-1.557-1.037-3.808,2.721-5.469,0c-0.972-1.849-0.545-4.804-3.312-5.156c-0.218-2.007,1.73-4.265,0.844-6.719   c-0.438-2.188-0.516-4.503-2.406-5.906c0.595-2.116,2.987-3.262,3.625-5.344c2.494-0.431,0.165-3.946-1-5   c-0.409-2.48-1.664-3.941-4.094-4.5c-2.489-3.131-1.892-7.756-3.062-11.5C1057.696,78.196,1057.179,76.223,1055.906,74.844z    M1234.969,1453.094c-0.042,0.004-0.083,0.027-0.125,0.031C1234.714,1453.218,1234.797,1453.168,1234.969,1453.094z    M989.25,1647.062c1.367-0.103-0.13,4.487,1.562,5.594c3.243,1.704,1.373,4.16-2.375,2.938c-0.408-0.479-0.652-0.794-1.345-0.531   c-3.384-1.955-0.141-4.632,0.656-7.094C988.443,1647.343,988.936,1647.086,989.25,1647.062z" /><path
       id="path08"
       fill="#FEFEE4"
       stroke="#0978AB"
       stroke-width="0.7"
       stroke-linejoin="bevel"
       d="M1628.903,1460.308l-0.493-0.338   l-2.417-0.054l-1.151-0.405l-0.201-0.237l-0.098-0.304l1.682-0.511l2.286,0.776l0.705,0.552l-0.225,0.215L1628.903,1460.308z" /><path
       id="path27"
       fill="#FEFEE4"
       stroke="#0978AB"
       stroke-width="0.7"
       stroke-linejoin="bevel"
       d="M1906.713,1855.828l-1.138-1.217   l0.7-0.526l0.867,0.062l0.277,0.543l0.571,0.021l0.021,0.577l-0.229,0.193l-0.521-0.098l-0.042,0.309L1906.713,1855.828z" /><path
       id="path70"
       fill="#FEFEE4"
       stroke="#0978AB"
       stroke-width="0.7"
       stroke-linejoin="bevel"
       d="M543.449,523.717l-0.243-0.117   l0.059-0.19l0.188-0.049l0.146,0.209L543.449,523.717z" /><path
       id="path45"
       fill="#FEFEE4"
       stroke="#0978AB"
       stroke-width="0.7"
       stroke-linejoin="bevel"
       d="M121.43,634.084l-1.108-0.642   l-0.528-0.758l-0.977-0.097l-0.196-0.217l0.164-0.232l1.885,0.514l0.316,0.839l0.447,0.403L121.43,634.084z" /></g><g
     id="layer15"
     inkscape:groupmode="layer"
     inkscape:label="Other countries" /><g
     id="layer6"
     transform="translate(-6.2490173e-2,5.4199219e-2)"
     inkscape:groupmode="layer"
     inkscape:label="Lakes"><path
       id="polyline2482"
       fill="#C8EBFF"
       stroke="#0978AB"
       stroke-width="0.7"
       stroke-linecap="round"
       d="M1757.86,2.447   c3.22,0.517,6.73-2.018,9.915-0.161c2.553,0.903,1.71,2.773-0.371,0.806c-3.443-1.415-6.84,1.664-10.249,0.375   c-2.587,1.442,1.057,2.303,2.321,2.384c-0.856,0.69-3.707,0.932-4.476-0.236c-1.008-0.492-0.884-3.235-1.3-3.49   C1755.395,2.882,1756.3,2.083,1757.86,2.447z" /><path
       id="polyline2480"
       fill="#C8EBFF"
       stroke="#0978AB"
       stroke-width="0.7"
       stroke-linecap="round"
       d="M1603.014,510.277   c2.122,1.249,2.781-1.812,4.801-0.417c2.731-1.342,0.604,1.667,0.869,3.02c1.735,2.797-0.393,0.602-1.845,0.344   c-1.646,2.055-0.976-2.853-2.858-1.012C1603.126,514.225,1601.701,509.51,1603.014,510.277z" /><path
       id="polyline2568"
       fill="#C8EBFF"
       stroke="#0978AB"
       stroke-width="0.7"
       stroke-linecap="round"
       d="M1536.211,856.044   c-1.363,1.949-3.438,3.397-5.05,5.209c-1.896-1.46,2.181-2.782,2.581-4.416C1534.287,855.521,1537.939,852.097,1536.211,856.044z" /><path
       id="polyline2554"
       fill="#C8EBFF"
       stroke="#0978AB"
       stroke-width="0.7"
       stroke-linecap="round"
       d="M1433.129,1106.389   c1.798-0.912,1.904-3.564,3.797-4.119c1.938,0.949-0.617,3.701-1.792,4.602C1434.15,1108.214,1430.37,1108.056,1433.129,1106.389z" /><path
       id="polyline2556"
       fill="#C8EBFF"
       stroke="#0978AB"
       stroke-width="0.7"
       stroke-linecap="round"
       d="M1465.807,1087.863   c2.353-0.188,1.08-5.655,3.564-3.062c-0.148,1.725-0.125,4.459-2.337,4.41C1465.77,1090.01,1463.36,1088.258,1465.807,1087.863z" /><path
       id="polyline2558"
       fill="#C8EBFF"
       stroke="#0978AB"
       stroke-width="0.7"
       stroke-linecap="round"
       d="M1477.317,1068.746   c-2.192-1.913-0.271-4.641-1.077-6.98c-0.493-1.99,0.418-4.521-1.408-5.986c-1.561-3.049-1.194-7.133-3.901-9.692   c-0.761-2.041,0.618-5.598,3.095-3.365c1.293,1.492,0.964,3.951,2.399,5.555c0.708,2.422,4.082,3.432,3.138,6.318   c-2.123,1.788,0.911,3.775-0.092,5.454c0.583,1.761,0.832,3.831,0.893,5.96C1480.76,1068.162,1479.702,1070.297,1477.317,1068.746z   " /><path
       id="polyline2560"
       fill="#C8EBFF"
       stroke="#0978AB"
       stroke-width="0.7"
       stroke-linecap="round"
       d="M1521.098,1041.842   c-0.257-2.194-0.652-4.491-1.854-6.229c-1.821,2.011-2.199-1.338-4.234-1.719c-1.819-1.183-3.9-2.301-2.852-4.965   c1.114-2.13-2.506-3.877-0.453-5.238c2.868-1.776,3.811,2.166,4.113,4.258c0.264,2.602,0.97,5.36,3.796,6.214   c2.958,0.914,2.951,4.154,3.861,6.605C1523.822,1042.504,1521.559,1044.464,1521.098,1041.842z" /><path
       id="polyline2670"
       fill="#C8EBFF"
       stroke="#0978AB"
       stroke-width="0.7"
       stroke-linecap="round"
       d="M1528.599,1283.971   c1.257-1.686,3.232-2.736,3.156-5.21c2.252-0.046,2.278-3.35,4.726-2.92c3.078,1.764,4.974-2.323,8.05-1.751   c2.528-0.051,5.009-0.738,7.277-1.559c3.253,0.702-1.295,2.38-2.826,2.122c-2.812,0.075-4.938,1.849-7.57,2.496   c-3.533,0.045-6.242,2.812-8.207,5.423c-0.5,3.422,3.928,3.417,6.274,3.438c3.717,1.53-0.594,1.978-2.462,1.448   c-2.739,1.24-4.872-2.422-7.712-1.503C1527.738,1286.306,1528.713,1284.737,1528.599,1283.971z" /><path
       id="polyline2642"
       fill="#C8EBFF"
       stroke="#0978AB"
       stroke-width="0.7"
       stroke-linecap="round"
       d="M1364.283,1473.634   c-0.312-1.585-2.883-4.528-0.037-4.993c1.4,0.49,1.521,4.922,0.523,5.357C1364.544,1473.991,1364.434,1473.778,1364.283,1473.634z" /><path
       id="polyline2644"
       fill="#C8EBFF"
       stroke="#0978AB"
       stroke-width="0.7"
       stroke-linecap="round"
       d="M1343.154,1477.984   c-0.754-1.668-1.757-4.813,0.557-5.585c2.128,1.205,1.87,4.459,1.82,6.605C1344.822,1480.208,1343.76,1478.37,1343.154,1477.984z" /><path
       id="polyline2646"
       fill="#C8EBFF"
       stroke="#0978AB"
       stroke-width="0.7"
       stroke-linecap="round"
       d="M1331.605,1488.617   c-1.492-1.641,0.866-5.416,2.485-2.876C1335.739,1488.027,1333.968,1489.443,1331.605,1488.617z" /><path
       id="polyline2648"
       fill="#C8EBFF"
       stroke="#0978AB"
       stroke-width="0.7"
       stroke-linecap="round"
       d="M1318.015,1487.006   c-0.855-4.076,3.355,2.373,2.7-1.368c0.812-2.181,3.044,1.038,3.575-2.338c1.817,0.604,2.235,4.636,0.406,5.241   C1322.533,1488.367,1319.793,1488.367,1318.015,1487.006z" /><path
       id="polyline2650"
       fill="#C8EBFF"
       stroke="#0978AB"
       stroke-width="0.7"
       stroke-linecap="round"
       d="M1312.265,1450.356   c-1.566,0.682-4.295,0.363-5.094,2.281c-0.252,2.347-1.864,3.727-3.532,5.095c-0.005,2.594-2.189,3.627-4.405,2.844   c-1.327,1.185-1.684,3.754-1.906,5.688c-0.714,1.352,0.289,1.319,1.344,1.25c1.508-1.135,5.401-0.499,3.156,1.719   c-3.387,1.717,1.037,0.719,2.656,0.812c2.395,1.065,4.241-1.604,6.406-1.188c2.493,0.503-0.124,3.354,2.656,4.094   c1.711,1.216,3.56,2.066,4.938,3.376c0.208,2.048,3.719,3.522,3.188,0.5c-0.645-1.729-2.1-3.508-4.094-3.72   c-2.673-0.951-0.283-3.559,1.219-4.375c0.298-2.309,3.054-2.594,3.812-4.595c-0.373-3.628-2.595,0.238-3.938-0.594   c-1.985-1.595-0.215-3.962,1.844-4.25c3.241-2.148-0.271-6.146-2.905-6.938C1316.378,1450.092,1314.029,1451.727,1312.265,1450.356   z M1306.702,1459.482c0.564-0.051,1.174,0.017,1.719,0.281c1.868,1.201-0.731,1.425-1.594,1.375   C1303.814,1460.883,1305.005,1459.633,1306.702,1459.482z M1312.952,1462.168c0.978-0.127,2.375,0.584,1.751,2.002   c-0.58,0.558-1.475,0.125-2.095-0.157C1311.701,1462.87,1312.192,1462.268,1312.952,1462.168z M1307.296,1462.418   c0.796-0.013,1.771,0.154,2.344,0.656c0.882,1.11-1.653,0.262-2.155,0.531C1305.14,1463.02,1305.968,1462.442,1307.296,1462.418z    M1304.889,1466.045c0.69-0.027,1.822,0.369,2.563,0.78c0.255,1.16-1.718,1.236-2.532,1.062   C1303.959,1466.54,1304.198,1466.072,1304.889,1466.045z" /><path
       id="polyline2652"
       fill="#C8EBFF"
       stroke="#0978AB"
       stroke-width="0.7"
       stroke-linecap="round"
       d="M1295.141,1460.801   c0.27-1.354-3.162-3.955-1.506-4.283c0.89,1.614,3.369,2.734,3.201,4.604C1296.012,1462.608,1295.658,1462.066,1295.141,1460.801z" /><path
       id="polyline2654"
       fill="#C8EBFF"
       stroke="#0978AB"
       stroke-width="0.7"
       stroke-linecap="round"
       d="M1284.075,1467.459   c-0.495-2.962-0.812-6.286,0.186-9.13c1.335,1.263-0.018,4.348,0.599,6.305c1.146,1.123,0.617,5.983-0.896,3.47l0.078-0.45   L1284.075,1467.459z" /><path
       id="polyline2656"
       fill="#C8EBFF"
       stroke="#0978AB"
       stroke-width="0.7"
       stroke-linecap="round"
       d="M1271.264,1466.44   c-0.396-1.529,1.432-4.921,2.563-2.323c2.399,0.276,1.153-5.104,4.121-3.799c1.271,1.462,4.588-1.239,3.821,2.329   c0.471,2.778-2.156,3.977-3.674,5.672c-2.142,0.039-3.535-0.54-5.323-0.471C1271.711,1468.176,1271.035,1467.503,1271.264,1466.44z   " /><path
       id="polyline2658"
       fill="#C8EBFF"
       stroke="#0978AB"
       stroke-width="0.7"
       stroke-linecap="round"
       d="M1275.497,1455.968   c-0.447-1.502-2.517-3.525-1.847-4.532c1.727,0.429,3.819,1.259,4.073,2.546   C1277.308,1455.731,1277.888,1456.774,1275.497,1455.968z" /><path
       id="polyline2660"
       fill="#C8EBFF"
       stroke="#0978AB"
       stroke-width="0.7"
       stroke-linecap="round"
       d="M1266.14,1460.584   c-0.645-2.323-2.219-4.214-2.353-6.64c-1.207-2.661,1.887-3.25,2.648-0.77c1.483,1.379,3.346,2.938,2.186,5.272   c-0.395,1.242,0.85,5.923-1.554,3.426C1266.708,1461.49,1266.283,1461.115,1266.14,1460.584z" /><path
       id="polyline2662"
       fill="#C8EBFF"
       stroke="#0978AB"
       stroke-width="0.7"
       stroke-linecap="round"
       d="M1276.648,1443.348   c-2.909-0.622,0.739-3.589,2.108-3.004C1280.241,1441.997,1278.77,1444.113,1276.648,1443.348z" /><path
       id="polyline2664"
       fill="#C8EBFF"
       stroke="#0978AB"
       stroke-width="0.7"
       stroke-linecap="round"
       d="M1283.555,1441.147   c-0.561-2.712,3.565-4.995,4.742-2.048C1290.321,1442.442,1285.125,1443.36,1283.555,1441.147z" /><path
       id="polyline2666"
       fill="#C8EBFF"
       stroke="#0978AB"
       stroke-width="0.7"
       stroke-linecap="round"
       d="M1182.403,1489.476   c0.673-2.662,0.801-6.306,4.048-7.035c2.381-1.401,3.363-4.343,5.979-5.584c0.966-2.304,2.807-4.093,5.348-4.351   c1.184-0.859,2.488-4.933,3.803-2.084c-0.822,5.719-6.319,8.854-9.78,12.984c-2.735,2.479-6.291,4.073-8.096,7.464   C1181.879,1492.83,1181.365,1491.473,1182.403,1489.476z" /><path
       id="polyline2668"
       fill="#C8EBFF"
       stroke="#0978AB"
       stroke-width="0.7"
       stroke-linecap="round"
       d="M1121.913,1547.579   c0.28-3.172-4.123-0.717-3.229-3.491c0.565-1.808-4.229-1.773-1.227-4.08c2.751-0.193,2.116-2.679,0.804-4.225   c1.36-2.374,1.024-5.437,1.907-7.966c2.803,0.364,0.725,4.445,2.228,6.068c1.652,1.997-0.527,4.508,0.685,6.631   c-1.524,2.64,2.156,4.681,0.839,7.17C1123.184,1548.293,1122.598,1547.861,1121.913,1547.579z" /><path
       id="polyline2550"
       fill="#C8EBFF"
       stroke="#0978AB"
       stroke-width="0.7"
       stroke-linecap="round"
       d="M981.846,1036.472   c-0.128-1.909-1.938-5.399,0.492-6.263c1.411,1.035,0.639,3.977,1.514,5.188C983.549,1036.833,982.943,1038.846,981.846,1036.472z" /><path
       id="polyline2562"
       fill="#C8EBFF"
       stroke="#0978AB"
       stroke-width="0.7"
       stroke-linecap="round"
       d="M1288.828,587.71   c-3.406-0.592-0.23,2.657-2.377,3.812c-2.801-1.22-3.134,1.936-4.733,3.299c-2.321,0.916-3.341-3.256-2.173-4.909   c-0.14-3.613,1.609-2.442,1.244-4.254c1.479-2.383,3.182,0.572,3.613,0.845C1285.332,585.054,1289.701,585.69,1288.828,587.71z" /><path
       id="polyline2564"
       fill="#C8EBFF"
       stroke="#0978AB"
       stroke-width="0.7"
       stroke-linecap="round"
       d="M1228.561,795.311   c1.047,1.344,1.354,5.419-0.668,2.577c0.056-2.349-4.121-1.532-2.668-4.656C1226.243,794.509,1228.689,792.937,1228.561,795.311z" /><path
       id="polyline2728"
       fill="#C8EBFF"
       stroke="#0978AB"
       stroke-width="0.7"
       stroke-linecap="round"
       d="M589.753,1175.23   c-0.492-2.245,0.073-4.557-0.928-6.658c1.055-2.354-0.148-4.787,0.928-7.089c-0.835-2.204,0.504-4.057,0.789-6.137   c-0.658-2.365,1.072-4.103,1.736-6.106c-0.767-2.909,2.443-0.407,2.798,1.195c2.199,3.854,1.468,8.618,1.213,12.82   c0.361,3.092-2.343,5.649-2.117,8.753c-1.136,1.579-1.795,3.851-3.639,4.672C590.115,1176.279,590.102,1175.672,589.753,1175.23z" /><path
       id="polyline2764"
       fill="#C8EBFF"
       stroke="#0978AB"
       stroke-width="0.7"
       stroke-linecap="round"
       d="M580.805,1314.149   c0.404-2.343,0.883-4.627,0.088-6.838c0.747-1.718-0.816-5.513,2.362-5.082c1.334,1.062,1.9,3.358,3.911,4.044   c1.914,1.377,5.361,1.005,6.227,3.473c-1.951,1.688-4.903,0.925-7.167,2.096c-2.146,0.829-3.07,2.96-5.087,3.865   C580.548,1315.366,580.803,1314.685,580.805,1314.149z" /><path
       id="polyline2766"
       fill="#C8EBFF"
       stroke="#0978AB"
       stroke-width="0.7"
       stroke-linecap="round"
       d="M581.844,1298.093   c0.282-3.831,3.524-0.852,0.891,0.954C581.859,1299.465,582.021,1298.629,581.844,1298.093z" /><path
       id="polyline2768"
       fill="#C8EBFF"
       stroke="#0978AB"
       stroke-width="0.7"
       stroke-linecap="round"
       d="M582.513,1291.274   c0.061-2.522,0.431-5.094-0.147-7.652c0.335-2.938-0.167-7.779,3.75-8.296c1.886-0.395,3.545,1.632,5.304,2.066   c0.318,3.06,5.226,1.938,5.428,4.699c-1.188,3.109-5.599,1.303-6.942,4.35c-1.616,1.817-3.559,3.349-4.346,5.745   c-2.541,0.976-1.599,4.577-2.116,0.859C582.919,1292.715,582.396,1291.875,582.513,1291.274z" /><path
       id="polyline2726"
       sodipodi:nodetypes="ccccccc"
       fill="#C8EBFF"
       stroke="#0978AB"
       stroke-width="0.7"
       stroke-linecap="round"
       d="   M594.642,1189.779c0.071,3.323-0.677,7.039-2.733,9.776c-0.78,0.018-0.786-0.62-0.966-1.182c-0.466-2.278,0.528-4.312-1.226-6.067   c0.064-0.876,0.553-1.796-0.188-2.527c-1.081-2.5,3.363-2.856,4.272-0.963C593.993,1189.196,594.499,1189.391,594.642,1189.779z" /></g><g
     id="layer3"
     transform="translate(-6.2490173e-2,5.4199219e-2)"
     inkscape:groupmode="layer"
     inkscape:label="International boundaries" /><g
     id="layer14"
     inkscape:groupmode="layer"
     inkscape:label="Legend" /><g
     id="layer7"
     inkscape:groupmode="layer"
     inkscape:label="Regions"><path
       id="path4057"
       fill="none"
       stroke="#646464"
       stroke-width="2"
       stroke-linejoin="bevel"
       d="M1423.571,851.018l-0.181-0.098   l-0.278-0.052l0.166-0.413l-0.157-0.008l-0.13-0.087l0.062-0.304l0.101-0.191l0.108-0.055l0.002,0.147l0.215,0.033l-0.1,0.201   l0.412,0.073l0.156,0.262l0.165,0.008l-0.108,0.227l0.081,0.052l-0.08,0.14l-0.14-0.047l-0.104,0.095L1423.571,851.018z" /></g></svg>
